<svg id="svg" version="1.1" xmlns="http://www.w3.org/2000/svg" xmlns:xlink="http://www.w3.org/1999/xlink" width="400" height="400" viewBox="0, 0, 400,400"><g id="svgg"><path id="path0" d="M115.524 52.898 C 111.753 54.254,111.750 54.268,111.705 71.345 C 111.662 87.740,111.599 87.274,113.825 86.943 C 124.828 85.311,175.540 85.132,186.523 86.687 C 189.552 87.115,189.258 88.724,189.258 71.745 C 189.258 55.179,189.227 54.949,186.770 53.421 L 185.352 52.539 151.172 52.454 C 123.266 52.385,116.723 52.466,115.524 52.898 M111.960 88.497 C 111.270 90.295,111.710 363.398,112.405 364.793 C 114.014 368.024,110.807 367.773,150.517 367.773 L 185.742 367.773 186.967 366.900 C 189.677 364.967,189.454 377.636,189.448 226.262 C 189.445 151.124,189.332 89.235,189.196 88.729 C 188.977 87.909,188.789 87.834,187.471 88.045 C 177.061 89.710,117.091 89.719,112.759 88.056 C 112.457 87.941,112.098 88.139,111.960 88.497 M296.888 133.651 C 292.061 134.501,288.056 135.251,287.988 135.320 C 287.630 135.677,306.840 245.955,307.350 246.466 C 307.844 246.962,307.884 246.935,307.667 246.251 C 307.469 245.626,313.030 232.543,313.838 231.735 C 313.915 231.658,316.498 234.167,319.577 237.311 C 322.657 240.454,325.215 242.882,325.262 242.705 C 325.466 241.938,306.407 132.281,306.055 132.199 C 305.840 132.148,301.715 132.802,296.888 133.651 M307.214 133.646 C 307.394 134.575,325.465 240.106,326.000 243.359 C 326.221 244.701,326.154 244.658,322.390 241.016 L 318.555 237.305 322.258 241.113 C 326.629 245.608,328.522 245.963,327.886 242.168 C 320.614 198.745,309.621 135.970,309.168 135.280 C 308.842 134.782,308.398 134.375,308.182 134.375 C 307.965 134.375,307.613 133.979,307.400 133.496 C 307.037 132.671,307.026 132.680,307.214 133.646 M133.691 164.997 C 134.121 165.323,134.375 166.041,134.375 166.929 C 134.375 168.919,135.024 169.221,143.164 171.030 C 154.760 173.605,154.982 173.584,152.935 170.091 C 151.200 167.130,152.131 167.678,154.683 171.120 L 157.076 174.347 156.266 175.157 L 155.456 175.967 147.943 174.456 C 136.599 172.173,135.919 171.898,133.552 168.630 C 131.874 166.313,131.974 163.693,133.691 164.997 M154.980 179.269 C 157.573 182.870,157.611 183.370,155.273 183.107 C 153.137 182.866,153.136 182.685,155.293 185.615 C 158.320 189.728,157.224 191.219,151.850 190.297 C 145.226 189.162,142.188 186.233,142.188 180.985 C 142.188 178.190,142.572 177.314,143.474 178.052 C 144.060 178.531,151.126 180.078,152.728 180.078 C 154.158 180.078,154.178 179.878,152.930 178.041 C 151.836 176.432,151.727 176.034,152.441 176.264 C 152.710 176.350,153.853 177.702,154.980 179.269 M143.948 182.408 C 143.477 185.194,145.747 186.931,150.856 187.698 C 154.281 188.211,154.989 187.410,153.373 184.850 C 152.078 182.797,151.755 182.607,148.251 181.840 C 146.537 181.464,144.928 181.078,144.676 180.981 C 144.395 180.873,144.114 181.423,143.948 182.408 M150.781 193.541 C 160.316 195.574,160.232 195.548,162.209 197.058 C 165.167 199.317,167.194 205.187,165.578 206.816 C 164.493 207.910,163.280 206.046,163.525 203.659 C 163.972 199.296,163.321 198.585,157.869 197.472 C 153.643 196.611,153.613 196.642,155.686 199.731 C 158.701 204.226,157.548 205.125,150.800 203.541 C 145.522 202.302,145.291 202.366,146.287 204.785 C 147.097 206.754,145.287 205.118,143.982 202.702 C 142.065 199.152,142.153 199.110,148.542 200.519 C 154.939 201.930,155.416 201.794,153.894 198.988 C 152.603 196.608,152.699 196.663,148.062 195.603 C 144.159 194.712,143.960 194.616,143.053 193.183 L 142.109 191.691 143.027 191.887 C 143.532 191.995,147.021 192.739,150.781 193.541 M149.414 207.170 C 157.613 209.355,161.241 219.141,153.853 219.141 C 149.109 219.141,145.558 216.790,143.495 212.284 C 141.500 207.926,144.034 205.737,149.414 207.170 M146.484 209.633 C 142.313 211.303,145.775 215.777,151.651 216.310 C 155.277 216.639,156.692 215.467,155.652 212.994 C 154.806 210.982,148.703 208.744,146.484 209.633 M140.881 221.309 C 142.376 222.450,142.547 223.047,141.376 223.047 C 138.373 223.047,137.343 227.824,139.714 230.753 C 145.786 238.255,158.694 237.816,156.310 230.189 C 155.490 227.564,153.030 225.970,149.526 225.795 C 149.373 225.788,149.355 226.924,149.485 228.320 C 149.747 231.126,149.544 231.449,148.629 229.681 C 148.167 228.787,148.047 227.534,148.131 224.505 C 148.239 220.631,148.260 220.547,148.821 221.766 C 149.362 222.943,149.638 223.078,153.118 223.865 C 162.031 225.882,165.981 229.177,166.152 234.741 C 166.224 237.074,165.984 237.363,164.682 236.510 C 163.763 235.907,163.672 235.613,163.672 233.245 C 163.672 229.788,163.227 229.236,159.567 228.149 C 155.981 227.085,155.983 227.083,157.214 229.728 C 160.973 237.803,154.494 242.026,145.355 237.460 C 138.745 234.157,134.494 224.905,137.913 221.265 C 139.031 220.075,139.268 220.079,140.881 221.309 M313.110 234.473 C 312.610 235.601,311.212 238.618,310.004 241.177 C 307.930 245.569,307.840 245.882,308.404 246.744 C 309.672 248.678,310.557 247.822,313.115 242.188 C 315.390 237.175,316.427 235.909,317.639 236.666 C 318.099 236.953,317.531 236.116,316.377 234.805 C 313.863 231.948,314.214 231.984,313.110 234.473 M136.328 247.268 C 136.328 249.752,139.341 250.919,151.243 253.045 C 156.399 253.966,156.673 253.831,154.926 251.236 C 153.836 249.617,153.699 249.219,154.229 249.219 C 154.605 249.219,155.586 250.268,156.510 251.660 C 159.481 256.133,159.551 256.814,157.017 256.572 C 156.056 256.481,155.624 256.574,155.793 256.835 C 155.937 257.057,156.735 258.241,157.566 259.466 C 159.895 262.897,158.674 264.137,153.806 263.282 C 148.669 262.380,144.499 259.073,143.899 255.424 C 143.679 254.086,143.558 253.988,141.584 253.546 C 139.165 253.005,138.012 252.187,135.902 249.518 C 133.997 247.107,133.665 244.615,135.352 245.384 C 136.136 245.741,136.328 246.112,136.328 247.268 M146.172 255.156 C 143.979 257.349,148.667 260.633,154.102 260.709 C 156.814 260.747,156.975 260.312,155.159 257.841 C 154.595 257.073,154.090 256.380,154.037 256.300 C 153.957 256.179,147.540 254.752,146.855 254.703 C 146.737 254.694,146.430 254.898,146.172 255.156 M157.430 267.042 C 159.594 270.357,159.612 270.411,158.794 271.089 C 158.108 271.659,157.001 271.537,151.671 270.303 C 147.224 269.274,146.939 269.330,147.833 271.057 C 149.048 273.408,147.347 272.426,145.697 269.824 C 143.228 265.932,143.236 265.927,149.685 267.383 C 156.423 268.904,156.886 268.794,155.469 266.016 C 153.806 262.757,155.061 263.414,157.430 267.042 M140.885 266.992 C 140.501 268.179,138.878 268.336,138.005 267.271 C 136.906 265.928,136.904 265.943,138.184 265.184 C 139.286 264.531,141.255 265.850,140.885 266.992 M151.367 274.767 C 159.280 278.678,162.599 286.501,156.059 285.825 C 153.940 285.607,151.061 284.304,149.014 282.638 L 147.833 281.677 148.038 283.710 C 148.234 285.666,148.308 285.774,150.000 286.591 C 152.475 287.786,151.179 288.174,148.305 287.099 C 146.709 286.502,146.045 286.036,145.916 285.421 C 145.708 284.433,145.431 278.906,145.589 278.906 C 145.648 278.906,146.838 279.689,148.235 280.645 C 154.512 284.942,160.453 283.651,155.402 279.088 C 152.930 276.854,150.704 276.018,147.189 276.001 C 144.409 275.988,144.150 275.917,143.759 275.059 C 142.620 272.559,146.592 272.406,151.367 274.767 M154.199 290.903 C 158.635 293.053,161.315 299.107,158.735 301.151 C 155.966 303.345,149.404 301.139,146.715 297.111 C 142.460 290.734,146.661 287.250,154.199 290.903 M147.440 293.094 L 146.289 294.095 147.070 295.564 C 149.006 299.205,157.263 300.567,158.064 297.377 C 158.899 294.051,150.318 290.591,147.440 293.094 M164.283 297.559 C 164.412 298.149,164.598 298.883,164.695 299.189 C 165.068 300.364,164.013 303.788,162.841 305.211 C 161.355 307.013,159.659 307.901,153.751 309.973 C 151.196 310.869,149.262 311.693,149.455 311.804 C 149.647 311.916,150.508 312.231,151.367 312.505 C 153.167 313.079,155.619 314.681,157.031 316.206 L 158.008 317.260 158.203 315.379 L 158.398 313.498 159.046 314.493 C 160.135 316.165,160.528 323.871,159.476 322.933 C 159.045 322.549,158.598 321.531,158.483 320.672 C 157.972 316.862,156.252 315.966,144.389 313.333 L 140.926 312.565 141.098 314.935 C 141.358 318.537,143.687 320.036,147.041 318.761 C 147.923 318.426,148.107 318.514,148.629 319.523 C 149.477 321.164,149.383 321.418,147.814 321.713 C 143.064 322.604,139.997 318.799,139.599 311.523 L 139.407 308.008 140.309 309.033 C 141.118 309.953,146.958 311.766,147.468 311.256 C 147.545 311.179,146.020 309.274,144.079 307.023 C 139.096 301.242,138.437 300.031,139.423 298.473 C 140.265 297.143,142.188 298.715,141.939 300.531 C 141.709 302.212,142.654 303.841,146.374 308.175 L 147.523 309.513 152.765 307.428 C 163.455 303.176,165.275 301.463,162.484 298.283 L 161.296 296.930 162.386 296.766 C 162.986 296.675,163.605 296.575,163.762 296.543 C 163.919 296.511,164.154 296.968,164.283 297.559 M181.836 333.178 C 189.856 333.893,190.870 334.401,185.733 335.130 C 171.822 337.103,110.275 336.443,112.375 334.344 C 113.972 332.746,167.009 331.856,181.836 333.178 " stroke="none" fill="#566d82" fill-rule="evenodd"></path><path id="path1" d="M237.109 33.260 C 234.179 33.715,191.751 39.772,189.551 40.049 C 188.407 40.193,187.501 40.507,187.501 40.759 C 187.502 41.008,192.586 80.850,198.799 129.297 C 205.012 177.744,213.826 246.563,218.386 282.227 C 222.946 317.891,226.783 347.180,226.913 347.314 C 227.042 347.447,233.241 346.630,240.688 345.496 C 248.135 344.363,259.604 342.680,266.176 341.757 C 276.113 340.362,278.125 339.975,278.125 339.460 C 278.125 339.120,273.302 301.230,267.408 255.261 C 261.514 209.291,252.722 140.654,247.870 102.734 C 243.019 64.814,239.008 33.609,238.958 33.388 C 238.901 33.136,238.213 33.088,237.109 33.260 M76.241 74.862 C 76.311 75.212,77.949 76.309,79.883 77.300 L 83.398 79.102 83.398 86.133 L 83.398 93.164 75.195 93.164 L 66.992 93.164 66.881 89.645 C 66.704 84.046,67.015 83.134,69.351 82.392 C 70.692 81.966,71.324 81.544,71.401 81.025 C 71.507 80.313,71.213 80.273,65.819 80.265 C 60.400 80.258,60.131 80.294,60.238 81.017 C 60.318 81.548,60.939 81.961,62.305 82.392 L 64.258 83.008 64.606 87.564 C 65.090 93.916,65.835 93.359,56.848 93.359 L 49.219 93.359 49.219 86.534 L 49.219 79.709 51.270 79.129 C 52.397 78.810,53.813 78.432,54.414 78.290 C 55.128 78.121,55.466 77.815,55.388 77.411 C 55.260 76.741,47.021 74.839,46.675 75.398 C 46.147 76.253,46.682 103.144,47.225 103.039 C 47.534 102.979,48.047 102.139,48.366 101.172 C 49.178 98.707,48.146 98.841,66.456 98.834 C 84.798 98.828,83.600 98.651,84.352 101.465 C 84.617 102.458,85.025 103.125,85.367 103.125 C 85.857 103.125,85.938 101.141,85.938 89.094 L 85.938 75.062 83.496 74.851 C 75.790 74.185,76.108 74.185,76.241 74.862 M84.766 108.414 C 84.766 110.973,82.449 113.060,73.122 118.908 C 66.093 123.314,66.822 123.151,65.703 120.567 C 61.862 111.687,50.757 111.312,47.387 119.949 C 46.460 122.325,46.321 143.058,47.234 142.881 C 47.539 142.822,48.066 141.895,48.406 140.820 L 49.023 138.867 66.403 138.867 L 83.782 138.867 84.330 140.918 C 85.448 145.100,85.938 143.585,85.938 135.938 C 85.938 128.377,85.495 126.937,84.346 130.762 L 83.789 132.617 75.684 132.723 L 67.578 132.828 67.578 131.045 C 67.578 128.677,68.017 128.278,75.559 123.800 C 85.418 117.946,86.322 116.859,86.326 110.840 C 86.328 108.072,86.261 107.813,85.547 107.813 C 85.104 107.813,84.766 108.073,84.766 108.414 M61.149 120.656 C 64.307 122.090,65.625 124.929,65.625 130.293 L 65.625 132.813 57.227 132.813 L 48.828 132.813 48.845 129.395 C 48.885 121.465,54.364 117.574,61.149 120.656 M70.433 151.342 C 68.023 152.465,66.440 154.461,65.440 157.638 L 64.741 159.861 63.850 158.011 C 60.525 151.113,51.404 150.318,48.169 156.644 C 46.657 159.602,46.426 161.980,46.717 171.582 C 46.999 180.882,47.384 182.480,48.392 178.547 C 49.042 176.010,47.802 176.172,66.625 176.172 L 83.185 176.172 83.742 177.051 C 84.048 177.534,84.417 178.501,84.563 179.199 C 84.719 179.947,85.068 180.469,85.411 180.469 C 86.537 180.469,85.972 160.602,84.761 157.617 C 82.314 151.583,75.925 148.785,70.433 151.342 M79.102 157.381 C 82.447 158.930,83.984 161.839,83.984 166.619 C 83.984 171.059,84.770 170.703,74.958 170.703 L 66.406 170.703 66.408 167.285 C 66.414 158.573,72.097 154.138,79.102 157.381 M59.961 158.938 C 62.872 160.275,63.986 162.433,64.338 167.422 L 64.569 170.703 56.699 170.703 L 48.828 170.703 48.830 167.676 C 48.836 159.906,53.720 156.072,59.961 158.938 M46.875 195.886 C 46.875 202.002,46.961 203.068,47.437 202.885 C 47.746 202.766,48.115 202.113,48.257 201.432 C 48.398 200.752,48.765 199.800,49.071 199.316 L 49.627 198.438 66.318 198.443 C 84.761 198.450,83.745 198.313,84.392 200.884 C 85.418 204.959,85.938 203.218,85.938 195.703 C 85.938 188.128,85.396 186.370,84.374 190.627 C 83.765 193.167,85.075 193.009,65.628 192.882 L 49.029 192.773 48.445 190.723 C 47.299 186.695,46.875 188.089,46.875 195.886 M76.172 209.424 C 76.172 209.737,77.796 210.786,79.883 211.823 L 83.594 213.667 83.594 220.900 L 83.594 228.133 66.312 228.031 L 49.029 227.930 48.445 225.879 C 47.297 221.845,46.875 223.245,46.875 231.087 C 46.875 238.832,47.188 239.867,48.419 236.188 C 49.302 233.547,48.623 233.643,66.586 233.617 C 84.729 233.590,83.692 233.449,84.452 236.058 C 85.556 239.847,85.741 238.204,85.845 223.730 L 85.947 209.375 84.635 209.375 C 83.914 209.375,81.714 209.261,79.748 209.121 C 76.796 208.912,76.172 208.964,76.172 209.424 M84.522 244.614 C 83.496 247.463,83.579 247.422,63.946 254.837 L 46.484 261.433 46.485 262.845 L 46.486 264.258 63.985 271.793 C 84.573 280.658,83.700 280.191,84.560 282.781 C 85.644 286.046,85.938 285.139,85.938 278.516 C 85.938 271.909,85.644 270.986,84.570 274.219 C 83.733 276.740,83.488 276.735,76.887 274.069 L 71.680 271.966 71.574 264.768 L 71.468 257.569 77.355 255.478 C 83.862 253.167,83.983 253.173,84.657 255.833 C 85.541 259.321,85.938 257.525,85.938 250.033 C 85.938 242.173,85.711 241.307,84.522 244.614 M69.141 264.648 C 69.141 267.979,69.042 270.703,68.921 270.703 C 68.522 270.703,54.107 264.779,53.801 264.489 C 53.561 264.261,67.770 258.720,68.848 258.621 C 69.009 258.606,69.141 261.318,69.141 264.648 M82.426 288.184 C 82.428 288.345,82.685 289.317,82.997 290.343 C 83.308 291.370,83.682 293.524,83.828 295.129 L 84.092 298.047 85.405 298.047 C 87.282 298.047,86.950 294.868,84.565 289.993 C 83.703 288.232,82.411 287.139,82.426 288.184 M46.931 291.000 C 46.138 295.800,46.308 298.438,47.410 298.438 C 48.248 298.438,48.361 298.222,48.593 296.191 C 48.936 293.188,48.948 293.176,52.598 292.177 C 57.917 290.720,57.922 290.470,52.655 289.410 C 50.658 289.008,48.653 288.593,48.201 288.487 C 47.454 288.312,47.336 288.546,46.931 291.000 " stroke="none" fill="#d9bf67" fill-rule="evenodd"></path><path id="path2" d="M330.078 126.926 C 328.037 127.292,322.002 128.371,316.666 129.323 L 306.965 131.055 307.172 132.343 C 307.288 133.064,307.878 134.097,308.515 134.692 C 309.464 135.578,309.754 136.330,310.283 139.263 C 310.749 141.854,326.855 236.004,327.886 242.168 C 328.543 246.092,326.624 245.614,321.697 240.625 C 316.217 235.076,316.368 235.049,313.119 242.188 C 310.612 247.698,309.637 248.690,308.507 246.881 C 308.044 246.140,307.993 246.162,307.366 247.369 L 306.709 248.633 306.477 247.656 C 306.349 247.119,301.945 221.563,296.690 190.865 C 291.434 160.167,287.060 134.976,286.969 134.886 C 286.675 134.591,258.048 139.834,256.757 140.419 C 255.274 141.090,254.339 142.395,254.052 144.197 C 253.825 145.620,296.402 361.360,297.500 364.351 C 298.161 366.150,299.519 367.335,301.385 367.738 C 302.578 367.996,378.377 354.610,379.668 353.914 C 381.173 353.102,382.147 351.552,382.302 349.720 C 382.503 347.351,339.466 130.166,338.505 128.699 C 337.093 126.545,334.840 126.071,330.078 126.926 " stroke="none" fill="#7babfb" fill-rule="evenodd"></path><path id="path3" d="M224.805 13.673 C 222.012 14.051,216.035 14.834,211.523 15.412 C 207.012 15.990,199.980 16.906,195.898 17.448 C 191.816 17.989,188.257 18.445,187.988 18.461 C 187.720 18.477,187.569 18.559,187.654 18.643 C 187.739 18.728,187.394 19.211,186.889 19.717 C 185.459 21.146,185.396 22.208,186.316 29.292 C 186.789 32.929,187.070 36.076,186.941 36.285 C 186.812 36.494,186.885 36.775,187.103 36.910 C 187.321 37.045,187.500 37.675,187.500 38.309 C 187.500 39.418,187.556 39.454,188.965 39.254 C 189.771 39.139,199.658 37.734,210.938 36.131 C 234.236 32.820,237.782 32.270,238.143 31.909 C 238.284 31.768,237.995 28.354,237.499 24.322 C 236.016 12.251,235.917 12.168,224.805 13.673 M27.344 20.357 C 26.807 20.572,25.868 21.221,25.258 21.800 C 23.099 23.847,23.047 24.154,23.047 34.746 L 23.047 44.531 66.364 44.531 C 105.504 44.531,109.705 44.472,109.919 43.913 C 110.050 43.574,110.156 39.260,110.156 34.327 C 110.156 24.204,109.961 23.348,107.163 21.214 L 105.725 20.117 67.023 20.041 C 41.913 19.992,27.977 20.103,27.344 20.357 M23.047 192.188 L 23.047 332.422 66.211 332.422 L 109.375 332.422 109.375 336.328 L 109.375 340.234 66.211 340.234 L 23.047 340.234 23.047 351.486 L 23.047 362.738 24.166 364.502 C 26.393 368.015,23.248 367.759,65.757 367.877 C 108.966 367.996,107.651 368.131,109.628 363.398 C 110.178 362.081,110.467 53.997,109.919 52.571 C 109.705 52.013,105.504 51.953,66.364 51.953 L 23.047 51.953 23.047 192.188 M84.902 72.518 L 87.891 72.771 87.891 86.776 C 87.891 98.965,87.815 100.781,87.305 100.781 C 86.982 100.781,86.691 100.474,86.657 100.098 C 86.624 99.722,86.492 100.291,86.364 101.364 C 86.022 104.245,85.003 104.258,84.170 101.392 L 83.538 99.219 66.795 99.219 C 50.396 99.219,50.048 99.235,49.805 100.000 C 49.668 100.430,49.324 100.781,49.041 100.781 C 48.757 100.781,48.409 101.396,48.268 102.148 C 48.079 103.157,47.811 103.516,47.248 103.516 C 46.504 103.516,46.484 103.145,46.484 89.212 L 46.484 74.909 47.461 75.096 C 48.319 75.260,48.438 75.146,48.438 74.165 C 48.438 72.825,48.517 72.819,53.421 73.777 C 58.188 74.709,58.671 75.323,55.267 76.120 C 54.341 76.337,54.067 76.500,54.590 76.523 C 55.073 76.545,55.469 76.636,55.469 76.726 C 55.469 76.816,55.569 77.150,55.691 77.468 C 55.861 77.911,55.284 78.209,53.250 78.733 L 50.586 79.418 50.781 85.119 L 50.977 90.820 57.729 90.927 L 64.481 91.034 64.369 87.068 L 64.258 83.102 62.109 82.457 C 58.836 81.474,58.765 80.091,61.985 80.047 C 63.977 80.020,64.125 79.968,63.184 79.624 C 60.429 78.618,61.940 78.125,67.773 78.125 C 72.515 78.125,73.438 78.219,73.438 78.703 C 73.438 79.022,73.030 79.384,72.532 79.509 C 71.798 79.693,71.657 79.944,71.788 80.836 C 71.935 81.834,71.811 81.969,70.448 82.291 L 68.945 82.645 68.834 86.830 L 68.724 91.016 75.963 91.016 L 83.203 91.016 83.203 85.041 L 83.203 79.067 79.716 77.358 C 75.325 75.206,74.812 74.226,78.064 74.203 C 80.245 74.188,80.260 74.180,79.199 73.605 C 76.814 72.310,78.544 71.981,84.902 72.518 M86.111 86.914 C 86.111 93.574,86.164 96.354,86.230 93.091 C 86.295 89.828,86.295 84.379,86.230 80.981 C 86.165 77.584,86.111 80.254,86.111 86.914 M88.044 106.087 C 88.803 108.064,88.014 113.538,86.791 114.783 C 86.429 115.152,85.875 115.946,85.561 116.549 C 84.651 118.291,82.892 119.607,75.885 123.789 L 69.313 127.711 69.465 129.305 L 69.617 130.898 76.956 130.834 L 84.295 130.769 84.530 129.596 C 84.719 128.652,84.920 128.465,85.562 128.633 C 86.202 128.800,86.406 128.615,86.588 127.702 C 86.714 127.075,87.058 126.563,87.354 126.563 C 87.789 126.563,87.891 127.888,87.891 133.594 C 87.891 140.446,87.610 141.934,86.731 139.746 C 86.451 139.050,86.373 139.293,86.353 140.918 C 86.332 142.654,86.216 142.969,85.596 142.969 C 85.066 142.969,84.659 142.401,84.126 140.918 L 83.389 138.867 66.474 138.765 C 56.243 138.704,49.646 138.806,49.780 139.023 C 50.112 139.559,49.601 140.625,49.013 140.625 C 48.730 140.625,48.387 141.138,48.249 141.764 C 48.008 142.864,47.200 143.554,46.718 143.072 C 46.026 142.380,46.494 122.706,47.262 120.223 C 48.002 117.826,50.193 114.844,51.214 114.844 C 51.431 114.844,51.504 114.675,51.376 114.468 C 50.777 113.498,54.373 111.917,57.499 111.775 C 62.616 111.542,66.028 113.834,67.837 118.721 C 68.200 119.704,68.531 120.558,68.572 120.618 C 68.612 120.679,70.897 119.299,73.650 117.552 C 79.137 114.069,79.997 113.617,79.494 114.484 C 79.303 114.813,79.316 114.907,79.527 114.714 C 79.723 114.535,79.883 114.183,79.884 113.932 C 79.884 113.682,80.180 113.474,80.540 113.472 C 80.900 113.469,81.339 113.309,81.515 113.116 C 81.701 112.912,81.590 112.892,81.250 113.066 C 80.928 113.232,81.191 112.915,81.836 112.362 C 82.480 111.809,83.132 111.350,83.285 111.342 C 83.437 111.334,83.874 110.449,84.255 109.375 C 84.738 108.017,85.162 107.422,85.648 107.422 C 86.035 107.422,86.514 106.985,86.719 106.445 C 87.142 105.332,87.697 105.182,88.044 106.087 M86.419 112.500 C 86.419 113.252,86.499 113.560,86.597 113.184 C 86.696 112.808,86.696 112.192,86.597 111.816 C 86.499 111.440,86.419 111.748,86.419 112.500 M62.109 115.357 C 62.109 115.424,62.681 115.995,63.379 116.626 L 64.648 117.773 63.501 116.504 C 62.432 115.321,62.109 115.055,62.109 115.357 M53.887 120.373 C 53.125 120.577,51.982 121.187,51.348 121.728 C 50.714 122.270,50.434 122.590,50.725 122.440 C 51.108 122.244,51.195 122.372,51.040 122.900 C 50.794 123.737,50.689 125.834,50.743 128.809 L 50.781 130.859 58.008 130.859 L 65.234 130.859 65.234 128.659 C 65.234 121.942,60.621 118.574,53.887 120.373 M67.669 131.641 C 67.669 132.393,67.749 132.700,67.847 132.324 C 67.946 131.948,67.946 131.333,67.847 130.957 C 67.749 130.581,67.669 130.889,67.669 131.641 M86.059 135.352 C 86.061 136.641,86.134 137.121,86.221 136.419 C 86.308 135.717,86.306 134.662,86.217 134.075 C 86.127 133.488,86.056 134.063,86.059 135.352 M81.682 149.474 C 83.922 150.693,85.567 152.737,86.805 155.841 C 87.941 158.688,88.426 178.125,87.361 178.125 C 87.038 178.125,86.697 177.729,86.604 177.246 C 86.511 176.763,86.411 177.378,86.381 178.613 C 86.306 181.803,85.111 181.856,84.196 178.711 L 83.572 176.563 66.786 176.563 C 52.305 176.563,50.000 176.641,50.000 177.135 C 50.000 177.449,49.663 177.887,49.251 178.108 C 48.838 178.329,48.385 179.038,48.243 179.684 C 48.065 180.493,47.751 180.859,47.235 180.859 C 46.159 180.859,46.086 162.608,47.147 158.815 C 49.556 150.195,60.195 147.263,64.696 153.979 L 65.916 155.799 66.421 154.856 C 67.123 153.544,70.158 150.763,70.526 151.095 C 70.692 151.245,70.716 151.171,70.580 150.931 C 69.156 148.436,77.711 147.313,81.682 149.474 M73.735 150.276 C 74.221 150.370,74.924 150.366,75.298 150.268 C 75.671 150.171,75.273 150.094,74.414 150.099 C 73.555 150.103,73.249 150.183,73.735 150.276 M54.785 152.222 C 55.161 152.321,55.776 152.321,56.152 152.222 C 56.528 152.124,56.221 152.044,55.469 152.044 C 54.717 152.044,54.409 152.124,54.785 152.222 M80.859 152.075 C 80.859 152.143,81.431 152.714,82.129 153.345 L 83.398 154.492 82.251 153.223 C 81.182 152.039,80.859 151.774,80.859 152.075 M72.373 156.997 C 69.136 157.825,68.365 159.352,68.362 164.941 L 68.359 168.359 75.944 168.359 C 81.646 168.359,83.578 168.481,83.726 168.848 C 84.093 169.759,83.987 165.743,83.587 163.637 C 82.619 158.533,77.717 155.631,72.373 156.997 M55.078 158.499 C 53.193 158.766,51.650 159.412,50.926 160.238 C 50.524 160.697,50.371 160.970,50.586 160.846 C 50.839 160.700,50.929 161.984,50.842 164.490 L 50.708 168.359 57.439 168.359 L 64.169 168.359 63.969 165.862 C 63.551 160.656,60.090 157.789,55.078 158.499 M66.412 170.020 C 66.407 170.653,67.045 170.697,75.098 170.614 L 83.789 170.524 75.409 170.410 C 69.310 170.328,66.945 170.166,66.723 169.816 C 66.510 169.480,66.416 169.541,66.412 170.020 M52.832 170.604 C 54.927 170.674,58.354 170.674,60.449 170.604 C 62.544 170.533,60.830 170.476,56.641 170.476 C 52.451 170.476,50.737 170.533,52.832 170.604 M50.366 188.501 L 50.977 190.430 67.644 190.532 L 84.311 190.633 84.569 189.457 C 84.749 188.641,85.060 188.281,85.588 188.281 C 86.039 188.281,86.498 187.884,86.719 187.305 C 87.603 184.978,87.891 186.464,87.891 193.359 C 87.891 200.211,87.610 201.699,86.731 199.512 C 86.457 198.830,86.372 199.136,86.353 200.879 C 86.318 204.031,85.210 204.082,84.231 200.977 L 83.554 198.828 66.777 198.828 C 50.607 198.828,50.000 198.855,50.000 199.564 C 50.000 199.968,49.667 200.387,49.260 200.493 C 48.822 200.607,48.411 201.184,48.253 201.906 C 48.065 202.761,47.758 203.125,47.226 203.125 C 46.164 203.125,46.239 188.571,47.302 188.367 C 47.712 188.288,48.065 188.687,48.336 189.534 C 48.729 190.761,48.750 190.714,48.788 188.542 C 48.837 185.746,49.489 185.729,50.366 188.501 M57.689 192.870 C 61.810 192.934,68.666 192.934,72.923 192.871 C 77.181 192.808,73.809 192.756,65.430 192.756 C 57.051 192.756,53.567 192.807,57.689 192.870 M85.996 207.031 L 87.891 207.031 87.891 221.289 C 87.891 235.158,87.720 237.128,86.731 234.668 C 86.457 233.986,86.372 234.293,86.353 236.035 C 86.318 239.168,85.143 239.280,84.295 236.230 L 83.725 234.180 67.050 234.078 L 50.374 233.976 50.002 234.957 C 49.797 235.496,49.439 235.938,49.208 235.938 C 48.977 235.938,48.604 236.465,48.379 237.109 C 48.118 237.858,47.702 238.281,47.227 238.281 C 46.193 238.281,46.060 224.075,47.091 223.679 C 47.514 223.517,47.864 223.830,48.248 224.711 L 48.798 225.977 48.813 223.698 C 48.832 220.898,49.488 220.881,50.366 223.657 L 50.977 225.586 67.090 225.688 L 83.203 225.790 83.203 226.750 L 83.203 227.710 78.418 227.833 L 73.633 227.956 78.613 228.041 L 83.594 228.125 83.594 221.097 L 83.594 214.070 79.688 212.109 C 74.735 209.624,74.201 208.411,78.223 208.778 L 80.664 209.001 79.395 208.336 C 77.051 207.108,77.730 206.493,81.114 206.779 C 82.757 206.918,84.955 207.031,85.996 207.031 M87.891 247.689 C 87.891 254.970,87.512 256.889,86.671 253.877 C 86.499 253.263,86.392 253.788,86.367 255.371 C 86.316 258.545,85.144 258.945,84.412 256.039 C 83.801 253.612,83.469 253.583,78.020 255.483 L 73.242 257.149 73.438 263.379 L 73.633 269.608 78.864 271.707 C 84.043 273.785,84.766 273.922,84.766 272.829 C 84.766 272.519,85.126 272.266,85.567 272.266 C 86.107 272.266,86.502 271.882,86.777 271.094 C 87.602 268.729,87.891 270.055,87.891 276.204 C 87.891 282.352,87.470 284.081,86.671 281.221 C 86.499 280.607,86.392 281.132,86.367 282.715 C 86.338 284.532,86.188 285.156,85.780 285.156 C 85.379 285.156,85.529 285.710,86.334 287.207 C 89.522 293.140,89.800 301.416,87.027 307.905 C 86.580 308.950,86.060 309.646,85.831 309.505 C 85.580 309.349,85.546 309.448,85.742 309.765 C 85.933 310.075,85.827 310.443,85.471 310.704 C 85.149 310.940,84.608 311.671,84.268 312.329 C 77.508 325.411,55.451 324.305,48.694 310.547 C 45.499 304.041,45.061 288.970,48.047 288.281 C 48.742 288.120,49.059 287.754,49.146 287.011 C 49.253 286.093,49.401 285.993,50.363 286.186 C 50.965 286.306,53.005 286.695,54.896 287.050 C 58.907 287.803,59.419 288.395,56.764 289.211 C 55.664 289.549,55.248 289.801,55.762 289.817 C 57.932 289.884,56.714 291.265,53.716 292.136 C 50.263 293.139,50.214 293.233,50.462 298.408 C 51.043 310.556,64.497 316.689,77.479 310.723 C 83.244 308.074,85.206 298.746,82.187 288.345 C 81.685 286.615,83.556 287.465,84.613 289.447 C 85.701 291.487,85.766 291.240,84.958 288.136 C 84.633 286.892,84.473 285.704,84.601 285.496 C 84.974 284.893,83.986 281.372,83.259 280.715 C 82.895 280.385,74.603 276.663,64.834 272.444 C 44.967 263.865,46.399 264.622,46.336 262.668 C 46.295 261.391,46.430 261.167,47.475 260.785 C 48.249 260.502,48.614 260.130,48.529 259.713 C 48.445 259.304,48.790 258.934,49.492 258.683 C 50.094 258.468,57.881 255.525,66.797 252.144 C 75.713 248.763,83.213 245.990,83.464 245.980 C 83.714 245.971,84.133 245.202,84.393 244.271 C 84.742 243.026,85.066 242.578,85.618 242.578 C 86.101 242.578,86.514 242.160,86.777 241.406 C 87.630 238.961,87.891 240.434,87.891 247.689 M71.658 257.925 C 71.552 258.201,71.514 261.409,71.573 265.053 L 71.682 271.680 71.876 264.550 C 72.067 257.553,72.046 256.913,71.658 257.925 M62.835 261.035 L 57.506 263.027 63.031 265.262 C 68.391 267.430,68.562 267.535,68.803 268.807 C 68.969 269.684,69.002 269.472,68.904 268.164 C 68.823 267.090,68.755 264.585,68.753 262.598 C 68.752 260.610,68.618 258.998,68.457 259.014 C 68.296 259.030,65.766 259.940,62.835 261.035 M48.549 299.805 C 48.552 300.879,48.628 301.272,48.718 300.678 C 48.808 300.084,48.805 299.206,48.712 298.725 C 48.620 298.245,48.546 298.730,48.549 299.805 M87.230 300.586 C 87.233 301.875,87.306 302.355,87.392 301.653 C 87.479 300.951,87.478 299.896,87.388 299.309 C 87.299 298.722,87.228 299.297,87.230 300.586 M259.766 343.557 C 236.667 346.929,227.723 348.319,227.465 348.576 C 227.013 349.028,229.261 364.426,229.928 365.444 C 231.080 367.202,232.586 367.704,235.710 367.372 C 237.232 367.210,239.092 367.032,239.844 366.977 C 240.596 366.921,241.475 366.786,241.797 366.676 C 242.533 366.424,258.780 364.398,259.235 364.501 C 259.419 364.543,259.834 364.477,260.156 364.355 C 261.151 363.977,274.280 362.431,274.513 362.664 C 274.634 362.785,274.936 362.715,275.185 362.508 C 275.434 362.302,276.185 362.091,276.854 362.040 C 277.524 361.989,277.996 361.826,277.905 361.679 C 277.814 361.531,277.992 361.313,278.302 361.194 C 279.552 360.714,280.615 356.784,279.956 355.078 C 279.772 354.602,278.125 342.185,278.125 341.275 C 278.125 340.881,277.946 340.903,259.766 343.557 " stroke="none" fill="#491b06" fill-rule="evenodd"></path><path id="path4" d="M22.790 48.047 C 22.789 51.807,22.857 54.224,22.941 53.418 L 23.094 51.953 66.422 51.953 L 109.751 51.953 109.988 53.027 C 110.118 53.618,110.283 54.277,110.355 54.492 C 110.427 54.707,110.479 51.807,110.471 48.047 C 110.463 44.287,110.382 41.563,110.291 41.992 C 110.200 42.422,110.041 43.169,109.938 43.652 L 109.751 44.531 66.421 44.531 L 23.092 44.531 22.942 42.871 C 22.860 41.958,22.792 44.287,22.790 48.047 M78.125 72.646 C 78.125 73.410,80.731 74.367,83.398 74.583 L 86.133 74.805 86.347 87.695 C 86.464 94.785,86.596 100.630,86.640 100.684 C 87.758 102.067,87.891 100.597,87.891 86.776 L 87.891 72.771 84.902 72.518 C 80.642 72.158,78.125 72.206,78.125 72.646 M48.438 74.163 C 48.438 75.909,56.256 76.961,57.252 75.350 C 57.655 74.698,57.222 74.521,53.421 73.777 C 48.517 72.819,48.438 72.825,48.438 74.163 M62.109 78.673 C 62.109 79.536,64.293 80.078,67.773 80.078 C 71.254 80.078,73.438 79.536,73.438 78.673 C 73.438 78.228,72.372 78.125,67.773 78.125 C 63.175 78.125,62.109 78.228,62.109 78.673 M49.479 79.948 C 49.336 80.091,49.219 83.079,49.219 86.589 L 49.219 92.969 56.836 92.969 L 64.453 92.969 64.453 92.001 L 64.453 91.034 57.715 90.927 L 50.977 90.820 50.868 85.254 C 50.763 79.835,50.520 78.907,49.479 79.948 M67.676 83.071 C 67.322 83.214,67.188 84.604,67.188 88.118 L 67.188 92.969 75.195 92.969 L 83.203 92.969 83.203 91.992 L 83.203 91.016 75.977 91.016 L 68.750 91.016 68.750 86.914 C 68.750 84.658,68.618 82.826,68.457 82.843 C 68.296 82.860,67.944 82.963,67.676 83.071 M49.056 99.861 C 48.729 100.713,49.163 101.109,49.625 100.379 C 50.087 99.649,50.096 99.219,49.651 99.219 C 49.459 99.219,49.192 99.508,49.056 99.861 M86.871 105.929 C 86.320 106.820,86.463 115.332,87.015 114.576 C 88.453 112.610,88.818 105.469,87.481 105.469 C 87.302 105.469,87.027 105.676,86.871 105.929 M82.408 111.878 C 81.736 112.523,68.670 120.771,68.568 120.614 C 68.529 120.556,68.200 119.704,67.837 118.721 C 65.491 112.384,58.006 109.551,52.768 113.018 C 50.954 114.218,50.834 114.711,52.510 114.073 C 57.492 112.179,63.212 114.745,65.889 120.075 C 66.440 121.173,66.946 122.132,67.013 122.207 C 67.301 122.529,81.909 113.003,82.832 111.891 C 83.430 111.170,83.154 111.161,82.408 111.878 M50.081 123.693 C 49.157 125.532,48.704 128.785,49.049 131.092 L 49.307 132.813 57.271 132.813 L 65.234 132.813 65.234 131.836 L 65.234 130.859 58.028 130.859 L 50.822 130.859 50.704 128.809 C 50.639 127.681,50.693 125.791,50.824 124.609 C 51.121 121.931,51.025 121.813,50.081 123.693 M86.572 127.783 C 86.186 129.712,86.288 138.516,86.709 139.623 C 87.604 141.976,87.891 140.511,87.891 133.594 C 87.891 127.888,87.789 126.563,87.354 126.563 C 87.058 126.563,86.707 127.112,86.572 127.783 M68.438 128.594 C 68.180 128.852,67.969 129.906,67.969 130.938 L 67.969 132.813 75.221 132.813 C 82.609 132.813,83.984 132.580,83.985 131.334 C 83.985 130.721,83.372 130.674,76.758 130.786 L 69.531 130.908 69.531 129.516 C 69.531 128.062,69.226 127.805,68.438 128.594 M304.297 131.649 C 304.758 132.001,304.569 132.052,303.409 131.891 C 302.411 131.753,302.020 131.823,302.196 132.108 C 302.375 132.399,301.982 132.448,300.935 132.266 C 299.768 132.064,299.551 132.104,300.000 132.439 C 300.449 132.773,300.174 132.821,298.828 132.643 C 297.520 132.470,297.220 132.518,297.656 132.830 C 298.092 133.142,297.791 133.187,296.484 133.008 C 295.140 132.823,294.864 132.869,295.313 133.203 C 295.761 133.537,295.485 133.583,294.141 133.398 C 292.814 133.216,292.527 133.262,292.969 133.585 C 293.414 133.911,293.203 133.953,292.090 133.760 C 291.087 133.587,290.625 133.651,290.625 133.964 C 290.625 134.215,290.445 134.310,290.225 134.174 C 289.388 133.657,287.500 134.406,287.500 135.254 C 287.500 135.918,303.930 232.486,306.112 244.650 L 306.729 248.089 309.255 242.718 C 310.644 239.764,312.295 236.212,312.924 234.825 L 314.067 232.303 320.123 238.515 C 325.781 244.319,326.165 244.637,325.970 243.359 C 325.689 241.532,308.366 140.228,307.567 135.742 C 306.851 131.724,306.901 131.810,305.078 131.463 C 304.007 131.259,303.838 131.299,304.297 131.649 M315.896 187.337 C 321.095 217.612,325.309 242.528,325.262 242.705 C 325.215 242.882,322.652 240.449,319.566 237.299 C 315.689 233.341,313.861 231.725,313.650 232.066 C 313.482 232.338,311.968 235.601,310.286 239.318 C 308.603 243.035,307.134 246.080,307.022 246.085 C 306.794 246.095,287.792 135.515,287.988 135.319 C 288.194 135.113,305.636 132.100,306.055 132.199 C 306.270 132.249,310.698 157.061,315.896 187.337 M49.056 139.704 C 48.729 140.557,49.163 140.953,49.625 140.223 C 50.087 139.493,50.096 139.063,49.651 139.063 C 49.459 139.063,49.192 139.351,49.056 139.704 M73.275 148.601 C 72.433 148.915,71.291 149.641,70.736 150.215 L 69.727 151.259 70.703 150.747 C 72.325 149.897,76.835 150.110,79.202 151.150 C 84.419 153.441,86.313 158.238,86.322 169.189 C 86.329 176.375,86.536 178.125,87.383 178.125 C 88.428 178.125,87.923 158.641,86.805 155.841 C 84.390 149.788,78.520 146.648,73.275 148.601 M54.528 150.555 C 53.688 150.867,52.633 151.496,52.184 151.953 L 51.367 152.784 52.539 152.468 C 57.113 151.235,61.303 153.017,63.883 157.293 L 64.765 158.753 65.260 157.099 C 66.516 152.906,59.580 148.677,54.528 150.555 M68.268 159.863 C 67.025 161.775,66.039 167.233,66.561 169.314 L 66.812 170.313 75.203 170.313 L 83.594 170.313 83.594 169.336 L 83.594 168.359 75.977 168.359 L 68.359 168.359 68.359 164.939 C 68.359 163.058,68.523 160.948,68.723 160.251 C 69.151 158.757,69.046 158.668,68.268 159.863 M50.504 161.035 C 49.404 162.475,48.739 166.040,49.092 168.612 L 49.325 170.313 56.694 170.313 L 64.063 170.313 64.063 169.336 L 64.063 168.359 57.385 168.359 L 50.708 168.359 50.842 164.453 C 50.916 162.304,50.954 160.546,50.927 160.546 C 50.899 160.547,50.709 160.767,50.504 161.035 M49.056 177.204 C 48.921 177.557,48.890 177.927,48.988 178.025 C 49.299 178.335,50.000 177.712,50.000 177.125 C 50.000 176.359,49.360 176.413,49.056 177.204 M48.828 188.803 C 48.828 192.979,46.961 192.578,66.406 192.578 C 84.394 192.578,83.984 192.615,83.984 190.988 C 83.984 190.783,77.024 190.591,67.480 190.532 L 50.977 190.430 50.366 188.501 C 49.456 185.625,48.828 185.748,48.828 188.803 M86.709 187.330 C 85.758 189.831,86.390 200.391,87.490 200.391 C 87.749 200.391,87.891 197.900,87.891 193.359 C 87.891 186.442,87.604 184.977,86.709 187.330 M49.219 199.609 C 48.885 200.233,48.922 200.391,49.400 200.391 C 49.740 200.391,50.000 200.051,50.000 199.609 C 50.000 199.180,49.918 198.828,49.818 198.828 C 49.719 198.828,49.449 199.180,49.219 199.609 M78.125 207.097 C 78.125 207.951,80.637 208.984,82.728 208.990 C 83.741 208.993,84.966 209.101,85.449 209.231 L 86.328 209.466 86.328 221.505 C 86.328 228.381,86.491 233.973,86.709 234.545 C 87.716 237.194,87.891 235.239,87.891 221.289 L 87.891 207.031 85.996 207.031 C 84.955 207.031,82.757 206.918,81.114 206.779 C 78.637 206.569,78.125 206.624,78.125 207.097 M48.834 224.089 C 48.837 225.557,49.006 227.020,49.209 227.341 C 49.682 228.090,60.087 228.340,73.730 227.931 L 83.203 227.647 83.203 226.718 L 83.203 225.790 67.090 225.688 L 50.977 225.586 50.366 223.657 C 49.442 220.734,48.827 220.908,48.834 224.089 M49.201 234.799 C 48.741 235.659,48.915 236.172,49.536 235.787 C 50.037 235.478,50.403 233.984,49.977 233.984 C 49.790 233.984,49.441 234.351,49.201 234.799 M86.757 241.465 C 85.849 244.069,86.362 254.634,87.413 254.984 C 87.778 255.106,87.891 253.389,87.891 247.689 C 87.891 240.386,87.631 238.958,86.757 241.465 M78.125 247.853 C 75.225 248.968,67.358 251.953,60.645 254.485 C 50.230 258.414,46.541 260.156,48.641 260.156 C 50.030 260.156,82.966 247.184,83.413 246.461 C 83.888 245.692,83.431 245.813,78.125 247.853 M72.135 257.682 C 71.992 257.826,71.876 261.034,71.878 264.811 L 71.881 271.680 77.116 273.766 C 82.658 275.974,83.513 276.095,84.014 274.738 C 84.306 273.947,83.963 273.744,78.980 271.751 L 73.633 269.612 73.525 263.517 C 73.420 257.563,73.196 256.622,72.135 257.682 M55.469 263.852 L 54.102 264.362 55.078 264.752 C 55.615 264.966,58.011 265.947,60.402 266.933 C 62.793 267.918,65.660 269.083,66.774 269.522 L 68.798 270.320 68.676 268.917 L 68.555 267.515 63.477 265.415 C 58.026 263.161,57.560 263.070,55.469 263.852 M86.757 271.152 C 85.881 273.665,86.369 281.980,87.413 282.328 C 87.776 282.449,87.891 280.981,87.891 276.204 C 87.891 270.011,87.602 268.727,86.757 271.152 M84.592 285.512 C 84.467 285.714,84.809 287.519,85.353 289.522 C 87.790 298.499,87.959 303.759,85.977 308.974 C 85.036 311.452,85.253 311.491,86.482 309.065 C 89.737 302.644,89.742 293.852,86.496 287.447 C 85.495 285.471,84.956 284.923,84.592 285.512 M49.135 287.110 C 48.907 288.668,54.390 289.999,57.207 289.069 C 59.370 288.355,58.692 287.762,54.896 287.050 C 53.005 286.695,50.973 286.308,50.380 286.189 C 49.425 285.998,49.283 286.103,49.135 287.110 M49.818 293.497 C 48.773 294.261,48.470 301.301,49.351 304.332 C 52.397 314.812,68.116 318.567,77.734 311.111 C 78.486 310.528,78.838 310.153,78.516 310.277 C 78.193 310.401,76.787 310.978,75.391 311.559 C 63.166 316.643,50.586 309.449,50.586 297.373 C 50.586 294.951,50.576 292.969,50.563 292.969 C 50.550 292.969,50.215 293.206,49.818 293.497 M22.266 336.328 C 22.266 340.495,22.411 342.969,22.656 342.969 C 22.871 342.969,23.047 342.354,23.047 341.602 L 23.047 340.234 66.211 340.234 L 109.375 340.234 109.375 336.328 L 109.375 332.422 66.211 332.422 L 23.047 332.422 23.047 331.055 C 23.047 330.303,22.871 329.688,22.656 329.688 C 22.411 329.688,22.266 332.161,22.266 336.328 " stroke="none" fill="#0e0708" fill-rule="evenodd"></path><path id="path5" d="M111.390 87.500 C 111.390 89.691,111.445 89.888,111.791 88.939 C 112.050 88.227,112.389 87.914,112.750 88.053 C 117.096 89.721,177.047 89.712,187.490 88.042 C 188.741 87.842,189.019 87.923,189.175 88.530 C 189.278 88.930,189.359 88.379,189.355 87.305 C 189.350 86.230,189.270 85.755,189.175 86.247 C 189.056 86.869,188.804 87.082,188.350 86.944 C 182.806 85.258,124.216 85.273,113.644 86.964 C 112.325 87.175,112.168 87.100,111.796 86.078 C 111.442 85.104,111.390 85.286,111.390 87.500 M132.422 165.762 C 132.422 167.193,133.954 169.617,135.754 171.033 C 137.166 172.144,138.969 172.650,147.943 174.456 L 155.456 175.967 156.266 175.157 L 157.076 174.347 154.683 171.120 C 152.131 167.678,151.200 167.130,152.935 170.091 C 154.982 173.584,154.760 173.605,143.164 171.030 C 135.024 169.221,134.375 168.919,134.375 166.929 C 134.375 166.041,134.121 165.323,133.691 164.997 C 132.647 164.204,132.422 164.339,132.422 165.762 M151.953 176.355 C 151.953 176.492,152.393 177.251,152.930 178.041 C 154.178 179.878,154.158 180.078,152.728 180.078 C 151.126 180.078,144.060 178.531,143.474 178.052 C 142.572 177.314,142.188 178.190,142.188 180.985 C 142.188 186.233,145.226 189.162,151.850 190.297 C 157.224 191.219,158.320 189.728,155.293 185.615 C 153.136 182.685,153.137 182.866,155.273 183.107 C 157.611 183.370,157.573 182.870,154.980 179.269 C 153.177 176.764,151.953 175.586,151.953 176.355 M148.251 181.840 C 151.755 182.607,152.078 182.797,153.373 184.850 C 154.512 186.654,154.538 187.371,153.477 187.708 C 151.450 188.351,145.310 186.502,144.287 184.941 C 143.576 183.856,143.888 180.679,144.676 180.981 C 144.928 181.078,146.537 181.464,148.251 181.840 M143.053 193.183 C 143.960 194.616,144.159 194.712,148.062 195.603 C 152.699 196.663,152.603 196.608,153.894 198.988 C 155.416 201.794,154.939 201.930,148.542 200.519 C 142.153 199.110,142.065 199.152,143.982 202.702 C 145.287 205.118,147.097 206.754,146.287 204.785 C 145.291 202.366,145.522 202.302,150.800 203.541 C 157.548 205.125,158.701 204.226,155.686 199.731 C 153.613 196.642,153.643 196.611,157.869 197.472 C 163.321 198.585,163.972 199.296,163.525 203.659 C 163.280 206.046,163.304 206.135,164.304 206.591 C 167.808 208.187,165.998 199.951,162.209 197.058 C 160.232 195.548,160.316 195.574,150.781 193.541 C 147.021 192.739,143.532 191.995,143.027 191.887 L 142.109 191.691 143.053 193.183 M144.042 207.416 C 141.096 209.733,144.432 216.462,149.459 218.343 C 157.254 221.259,160.501 216.587,155.018 210.342 C 152.334 207.286,146.264 205.668,144.042 207.416 M153.066 210.805 C 155.216 211.843,156.346 213.417,155.971 214.851 C 155.277 217.503,147.761 216.501,145.349 213.435 C 142.600 209.940,147.685 208.207,153.066 210.805 M137.913 221.265 C 134.494 224.905,138.745 234.157,145.355 237.460 C 154.494 242.026,160.973 237.803,157.214 229.728 C 155.983 227.083,155.981 227.085,159.567 228.149 C 163.227 229.236,163.672 229.788,163.672 233.245 C 163.672 235.613,163.763 235.907,164.682 236.510 C 165.984 237.363,166.224 237.074,166.152 234.741 C 165.981 229.177,162.031 225.882,153.118 223.865 C 149.638 223.078,149.362 222.943,148.821 221.766 C 148.260 220.547,148.239 220.631,148.131 224.505 C 148.047 227.534,148.167 228.787,148.629 229.681 C 149.544 231.449,149.747 231.126,149.485 228.320 C 149.355 226.924,149.373 225.788,149.526 225.795 C 153.030 225.970,155.490 227.564,156.310 230.189 C 158.694 237.816,145.786 238.255,139.714 230.753 C 137.343 227.824,138.373 223.047,141.376 223.047 C 142.547 223.047,142.376 222.450,140.881 221.309 C 139.268 220.079,139.031 220.075,137.913 221.265 M134.375 246.262 C 134.375 248.903,138.227 252.795,141.584 253.546 C 143.558 253.988,143.679 254.086,143.899 255.424 C 144.499 259.073,148.669 262.380,153.806 263.282 C 158.674 264.137,159.895 262.897,157.566 259.466 C 156.735 258.241,155.937 257.057,155.793 256.835 C 155.624 256.574,156.056 256.481,157.017 256.572 C 159.551 256.814,159.481 256.133,156.510 251.660 C 155.586 250.268,154.605 249.219,154.229 249.219 C 153.699 249.219,153.836 249.617,154.926 251.236 C 156.673 253.831,156.399 253.966,151.243 253.045 C 139.341 250.919,136.328 249.752,136.328 247.268 C 136.328 246.112,136.136 245.741,135.352 245.384 C 134.414 244.957,134.375 244.992,134.375 246.262 M150.506 255.436 C 152.395 255.831,153.984 256.220,154.037 256.300 C 154.090 256.380,154.595 257.073,155.159 257.841 C 156.975 260.312,156.814 260.747,154.102 260.709 C 148.667 260.633,143.979 257.349,146.172 255.156 C 146.737 254.591,146.337 254.565,150.506 255.436 M154.688 264.273 C 154.688 264.389,155.039 265.173,155.469 266.016 C 156.886 268.794,156.423 268.904,149.685 267.383 C 143.236 265.927,143.228 265.932,145.697 269.824 C 147.347 272.426,149.048 273.408,147.833 271.057 C 146.939 269.330,147.224 269.274,151.671 270.303 C 157.001 271.537,158.108 271.659,158.794 271.089 C 159.612 270.411,159.594 270.357,157.430 267.042 C 155.782 264.519,154.688 263.413,154.688 264.273 M138.184 265.184 C 136.904 265.943,136.906 265.928,138.005 267.271 C 138.878 268.336,140.501 268.179,140.885 266.992 C 141.255 265.850,139.286 264.531,138.184 265.184 M143.824 273.543 C 142.595 275.025,143.910 275.986,147.189 276.001 C 150.704 276.018,152.930 276.854,155.402 279.088 C 160.453 283.651,154.512 284.942,148.235 280.645 C 146.838 279.689,145.648 278.906,145.589 278.906 C 145.431 278.906,145.708 284.433,145.916 285.421 C 146.045 286.036,146.709 286.502,148.305 287.099 C 151.179 288.174,152.475 287.786,150.000 286.591 C 148.308 285.774,148.234 285.666,148.038 283.710 L 147.833 281.677 149.014 282.638 C 155.262 287.724,161.533 286.721,158.692 281.090 C 156.426 276.599,145.775 271.193,143.824 273.543 M145.952 290.254 C 143.431 292.255,146.076 298.296,150.449 300.522 C 157.855 304.294,162.307 300.557,157.965 294.213 C 155.314 290.339,148.625 288.134,145.952 290.254 M154.971 293.421 C 159.883 295.885,158.827 299.725,153.416 299.084 C 150.530 298.743,148.020 297.350,147.070 295.564 L 146.289 294.095 147.440 293.094 C 148.879 291.842,152.103 291.982,154.971 293.421 M162.386 296.766 L 161.296 296.930 162.484 298.283 C 165.275 301.463,163.455 303.176,152.765 307.428 L 147.523 309.513 146.374 308.175 C 142.654 303.841,141.709 302.212,141.939 300.531 C 142.188 298.715,140.265 297.143,139.423 298.473 C 138.437 300.031,139.096 301.242,144.079 307.023 C 146.020 309.274,147.545 311.179,147.468 311.256 C 146.958 311.766,141.118 309.953,140.309 309.033 L 139.407 308.008 139.599 311.523 C 139.997 318.799,143.064 322.604,147.814 321.713 C 149.383 321.418,149.477 321.164,148.629 319.523 C 148.107 318.514,147.923 318.426,147.041 318.761 C 143.687 320.036,141.358 318.537,141.098 314.935 L 140.926 312.565 144.389 313.333 C 156.252 315.966,157.972 316.862,158.483 320.672 C 158.598 321.531,159.045 322.549,159.476 322.933 C 160.528 323.871,160.135 316.165,159.046 314.493 L 158.398 313.498 158.203 315.379 L 158.008 317.260 157.031 316.206 C 155.619 314.681,153.167 313.079,151.367 312.505 C 150.508 312.231,149.647 311.916,149.455 311.804 C 149.262 311.693,151.196 310.869,153.751 309.973 C 159.659 307.901,161.355 307.013,162.841 305.211 C 164.013 303.788,165.068 300.364,164.695 299.189 C 164.598 298.883,164.412 298.149,164.283 297.559 C 164.154 296.968,163.919 296.511,163.762 296.543 C 163.605 296.575,162.986 296.675,162.386 296.766 M128.516 332.823 C 116.298 333.338,110.255 334.139,112.754 334.911 C 119.616 337.032,186.618 336.585,188.799 334.404 C 190.188 333.015,149.358 331.944,128.516 332.823 " stroke="none" fill="#acbcbc" fill-rule="evenodd"></path><path id="path6" d="M231.055 33.610 C 227.188 34.219,216.289 35.790,206.836 37.102 C 197.383 38.414,189.121 39.649,188.477 39.846 C 186.457 40.465,190.464 39.954,213.477 36.655 C 225.508 34.931,236.099 33.426,237.012 33.311 C 237.925 33.196,238.672 32.949,238.672 32.762 C 238.672 32.575,238.540 32.440,238.379 32.463 C 238.218 32.485,234.922 33.002,231.055 33.610 M83.360 85.156 C 83.360 88.486,83.420 89.849,83.493 88.184 C 83.567 86.519,83.567 83.794,83.493 82.129 C 83.420 80.464,83.360 81.826,83.360 85.156 M64.563 80.366 C 65.590 80.446,67.172 80.445,68.078 80.364 C 68.985 80.282,68.145 80.216,66.211 80.217 C 64.277 80.218,63.536 80.285,64.563 80.366 M66.941 89.063 C 66.941 91.318,67.006 92.241,67.085 91.113 C 67.164 89.985,67.164 88.140,67.085 87.012 C 67.006 85.884,66.941 86.807,66.941 89.063 M64.584 90.234 C 64.584 91.846,64.653 92.505,64.738 91.699 C 64.822 90.894,64.822 89.575,64.738 88.770 C 64.653 87.964,64.584 88.623,64.584 90.234 M46.623 93.555 C 46.622 95.488,46.688 96.329,46.770 95.422 C 46.852 94.515,46.853 92.933,46.772 91.906 C 46.691 90.879,46.624 91.621,46.623 93.555 M79.004 93.253 C 79.810 93.338,81.128 93.338,81.934 93.253 C 82.739 93.169,82.080 93.100,80.469 93.100 C 78.857 93.100,78.198 93.169,79.004 93.253 M50.098 99.097 C 50.474 99.196,51.089 99.196,51.465 99.097 C 51.841 98.999,51.533 98.919,50.781 98.919 C 50.029 98.919,49.722 98.999,50.098 99.097 M46.627 136.914 C 46.628 139.063,46.694 139.892,46.773 138.756 C 46.852 137.621,46.851 135.863,46.771 134.850 C 46.691 133.837,46.626 134.766,46.627 136.914 M86.071 166.992 C 86.073 168.711,86.142 169.365,86.224 168.447 C 86.307 167.528,86.305 166.122,86.221 165.322 C 86.138 164.522,86.070 165.273,86.071 166.992 M64.188 168.359 C 64.188 169.756,64.258 170.327,64.345 169.629 C 64.432 168.931,64.432 167.788,64.345 167.090 C 64.258 166.392,64.188 166.963,64.188 168.359 M46.583 171.680 C 46.587 172.539,46.667 172.845,46.761 172.359 C 46.854 171.873,46.851 171.170,46.753 170.796 C 46.655 170.423,46.579 170.820,46.583 171.680 M46.562 177.637 C 46.494 180.477,46.565 180.859,47.168 180.853 C 47.633 180.849,47.701 180.752,47.382 180.549 C 47.108 180.375,46.856 179.038,46.776 177.332 L 46.640 174.414 46.562 177.637 M50.293 176.448 C 50.776 176.541,51.567 176.541,52.051 176.448 C 52.534 176.354,52.139 176.278,51.172 176.278 C 50.205 176.278,49.810 176.354,50.293 176.448 M86.003 178.581 C 85.966 179.618,85.727 180.489,85.449 180.601 C 85.067 180.755,85.069 180.804,85.461 180.829 C 86.157 180.871,86.407 180.031,86.225 178.264 C 86.074 176.808,86.067 176.818,86.003 178.581 M85.410 188.544 C 85.657 188.722,85.948 189.307,86.058 189.844 C 86.229 190.685,86.248 190.662,86.195 189.679 C 86.160 189.034,85.877 188.468,85.547 188.379 C 85.155 188.274,85.110 188.329,85.410 188.544 M46.605 190.820 C 46.608 192.109,46.681 192.590,46.767 191.888 C 46.854 191.185,46.853 190.131,46.763 189.544 C 46.674 188.957,46.603 189.531,46.605 190.820 M50.675 198.719 C 51.368 198.806,52.599 198.807,53.409 198.723 C 54.220 198.638,53.652 198.567,52.148 198.566 C 50.645 198.564,49.981 198.633,50.675 198.719 M81.157 198.714 C 81.643 198.807,82.346 198.804,82.719 198.706 C 83.093 198.608,82.695 198.532,81.836 198.536 C 80.977 198.540,80.671 198.620,81.157 198.714 M86.008 200.456 C 85.965 201.803,85.746 202.746,85.449 202.866 C 85.067 203.021,85.069 203.070,85.461 203.094 C 86.182 203.139,86.396 202.314,86.227 200.146 L 86.078 198.242 86.008 200.456 M46.601 201.172 C 46.601 202.354,46.675 202.837,46.764 202.246 C 46.854 201.655,46.854 200.688,46.764 200.098 C 46.675 199.507,46.601 199.990,46.601 201.172 M86.082 213.672 C 86.082 215.928,86.147 216.851,86.225 215.723 C 86.304 214.595,86.304 212.749,86.225 211.621 C 86.147 210.493,86.082 211.416,86.082 213.672 M86.028 233.984 C 86.028 234.736,86.109 235.044,86.207 234.668 C 86.305 234.292,86.305 233.677,86.207 233.301 C 86.109 232.925,86.028 233.232,86.028 233.984 M67.892 233.885 C 70.105 233.955,73.621 233.955,75.704 233.885 C 77.788 233.815,75.977 233.758,71.680 233.758 C 67.383 233.758,65.678 233.816,67.892 233.885 M86.055 246.484 C 86.055 247.666,86.128 248.149,86.217 247.559 C 86.307 246.968,86.307 246.001,86.217 245.410 C 86.128 244.819,86.055 245.303,86.055 246.484 M268.164 341.431 C 251.411 343.845,228.285 347.315,227.607 347.516 C 225.293 348.202,228.634 347.819,240.021 346.091 C 261.630 342.811,277.780 340.607,278.219 340.878 C 278.466 341.031,278.522 340.952,278.358 340.685 C 277.979 340.073,277.171 340.133,268.164 341.431 " stroke="none" fill="#a17431" fill-rule="evenodd"></path><path id="path7" d="M232.095 12.869 C 234.064 13.252,235.508 14.280,236.149 15.752 C 236.445 16.434,236.695 16.708,236.703 16.361 C 236.743 14.739,233.791 12.461,231.758 12.545 C 230.810 12.584,230.855 12.627,232.095 12.869 M227.832 13.160 C 228.208 13.258,228.823 13.258,229.199 13.160 C 229.575 13.062,229.268 12.981,228.516 12.981 C 227.764 12.981,227.456 13.062,227.832 13.160 M221.782 13.948 C 222.268 14.042,222.971 14.038,223.344 13.940 C 223.718 13.842,223.320 13.766,222.461 13.770 C 221.602 13.775,221.296 13.855,221.782 13.948 M218.457 14.332 C 218.833 14.430,219.448 14.430,219.824 14.332 C 220.200 14.234,219.893 14.153,219.141 14.153 C 218.389 14.153,218.081 14.234,218.457 14.332 M206.548 15.901 C 207.033 15.995,207.737 15.991,208.110 15.893 C 208.483 15.796,208.086 15.719,207.227 15.724 C 206.367 15.728,206.062 15.808,206.548 15.901 M203.223 16.285 C 203.599 16.383,204.214 16.383,204.590 16.285 C 204.966 16.187,204.658 16.106,203.906 16.106 C 203.154 16.106,202.847 16.187,203.223 16.285 M200.488 16.676 C 200.864 16.774,201.479 16.774,201.855 16.676 C 202.231 16.577,201.924 16.497,201.172 16.497 C 200.420 16.497,200.112 16.577,200.488 16.676 M197.363 17.066 C 197.739 17.164,198.354 17.164,198.730 17.066 C 199.106 16.968,198.799 16.888,198.047 16.888 C 197.295 16.888,196.987 16.968,197.363 17.066 M191.313 17.854 C 191.799 17.948,192.502 17.944,192.876 17.847 C 193.249 17.749,192.852 17.672,191.992 17.677 C 191.133 17.681,190.827 17.761,191.313 17.854 M186.689 19.501 C 186.061 20.129,185.552 20.876,185.559 21.161 C 185.565 21.446,185.760 21.328,185.991 20.898 C 186.222 20.469,186.876 19.723,187.444 19.240 C 188.012 18.758,188.331 18.362,188.154 18.361 C 187.976 18.360,187.317 18.873,186.689 19.501 M237.591 25.000 C 237.591 25.752,237.671 26.060,237.769 25.684 C 237.868 25.308,237.868 24.692,237.769 24.316 C 237.671 23.940,237.591 24.248,237.591 25.000 M185.638 26.172 C 185.638 26.924,185.718 27.231,185.816 26.855 C 185.914 26.479,185.914 25.864,185.816 25.488 C 185.718 25.112,185.638 25.420,185.638 26.172 M238.281 30.852 C 238.281 31.738,238.071 32.065,237.402 32.221 C 235.864 32.580,219.036 35.059,204.297 37.098 C 187.954 39.359,187.365 39.449,187.576 39.659 C 187.752 39.836,207.197 37.172,225.000 34.533 C 231.553 33.562,237.354 32.734,237.891 32.692 C 238.775 32.624,238.855 32.477,238.729 31.152 C 238.563 29.402,238.281 29.214,238.281 30.852 M186.809 35.156 C 186.809 35.908,186.890 36.216,186.988 35.840 C 187.086 35.464,187.086 34.849,186.988 34.473 C 186.890 34.097,186.809 34.404,186.809 35.156 M53.048 93.260 C 55.262 93.330,58.777 93.330,60.861 93.260 C 62.944 93.190,61.133 93.133,56.836 93.133 C 52.539 93.133,50.835 93.191,53.048 93.260 M69.612 93.258 C 71.053 93.333,73.514 93.333,75.081 93.259 C 76.648 93.185,75.469 93.123,72.461 93.123 C 69.453 93.122,68.171 93.183,69.612 93.258 M59.447 99.121 C 63.675 99.184,70.707 99.184,75.072 99.121 C 79.437 99.058,75.977 99.006,67.383 99.006 C 58.789 99.006,55.218 99.058,59.447 99.121 M85.932 101.056 C 85.828 102.389,85.884 103.337,86.058 103.163 C 86.231 102.989,86.316 101.898,86.247 100.739 L 86.122 98.633 85.932 101.056 M65.363 130.273 C 65.364 131.777,65.435 132.345,65.519 131.534 C 65.604 130.724,65.603 129.493,65.516 128.800 C 65.430 128.106,65.361 128.770,65.363 130.273 M86.059 131.055 C 86.061 132.344,86.134 132.824,86.221 132.122 C 86.308 131.420,86.306 130.365,86.217 129.778 C 86.127 129.191,86.056 129.766,86.059 131.055 M86.059 139.648 C 86.061 140.938,86.134 141.418,86.221 140.716 C 86.308 140.014,86.306 138.959,86.217 138.372 C 86.127 137.785,86.056 138.359,86.059 139.648 M86.078 173.438 C 86.078 175.479,86.144 176.313,86.225 175.293 C 86.305 174.272,86.305 172.603,86.225 171.582 C 86.144 170.562,86.078 171.396,86.078 173.438 M60.033 176.464 C 64.154 176.527,71.010 176.528,75.267 176.464 C 79.524 176.401,76.152 176.350,67.773 176.349 C 59.395 176.349,55.911 176.401,60.033 176.464 M86.082 194.531 C 86.082 196.787,86.147 197.710,86.225 196.582 C 86.304 195.454,86.304 193.608,86.225 192.480 C 86.147 191.353,86.082 192.275,86.082 194.531 M81.157 192.854 C 81.643 192.948,82.346 192.944,82.719 192.847 C 83.093 192.749,82.695 192.672,81.836 192.677 C 80.977 192.681,80.671 192.761,81.157 192.854 M46.621 196.094 C 46.621 197.920,46.688 198.667,46.770 197.754 C 46.853 196.841,46.853 195.347,46.770 194.434 C 46.688 193.521,46.621 194.268,46.621 196.094 M61.035 198.730 C 64.634 198.794,70.522 198.794,74.121 198.730 C 77.720 198.665,74.775 198.613,67.578 198.613 C 60.381 198.613,57.437 198.665,61.035 198.730 M86.102 225.195 C 86.101 229.492,86.158 231.303,86.228 229.220 C 86.299 227.137,86.299 223.621,86.229 221.407 C 86.159 219.194,86.102 220.898,86.102 225.195 M46.643 231.641 C 46.643 235.186,46.703 236.636,46.775 234.863 C 46.847 233.091,46.847 230.190,46.775 228.418 C 46.703 226.646,46.643 228.096,46.643 231.641 M86.028 249.609 C 86.028 250.361,86.109 250.669,86.207 250.293 C 86.305 249.917,86.305 249.302,86.207 248.926 C 86.109 248.550,86.028 248.857,86.028 249.609 M68.898 263.281 C 68.898 265.752,68.961 266.763,69.039 265.527 C 69.116 264.292,69.116 262.271,69.039 261.035 C 68.961 259.800,68.898 260.811,68.898 263.281 M268.945 341.819 C 257.203 343.509,232.170 347.238,229.395 347.711 C 226.986 348.122,226.954 348.143,227.012 349.357 C 227.066 350.500,227.081 350.513,227.230 349.538 C 227.347 348.775,227.677 348.429,228.441 348.267 C 230.612 347.807,276.977 341.016,277.942 341.016 C 278.014 341.016,278.150 341.457,278.244 341.997 C 278.401 342.896,278.411 342.888,278.368 341.899 C 278.305 340.478,278.269 340.477,268.945 341.819 M278.614 344.727 C 278.618 345.586,278.698 345.892,278.792 345.406 C 278.885 344.920,278.882 344.217,278.784 343.843 C 278.686 343.470,278.610 343.867,278.614 344.727 M279.005 347.852 C 279.009 348.711,279.089 349.017,279.183 348.531 C 279.276 348.045,279.272 347.342,279.175 346.968 C 279.077 346.595,279.000 346.992,279.005 347.852 M279.388 351.172 C 279.388 351.924,279.468 352.231,279.566 351.855 C 279.664 351.479,279.664 350.864,279.566 350.488 C 279.468 350.112,279.388 350.420,279.388 351.172 M227.833 355.273 C 227.837 356.133,227.917 356.438,228.011 355.952 C 228.104 355.467,228.101 354.763,228.003 354.390 C 227.905 354.017,227.829 354.414,227.833 355.273 M280.078 357.448 C 280.078 358.106,279.893 359.029,279.666 359.498 C 279.268 360.323,279.274 360.326,279.861 359.593 C 280.413 358.905,280.740 356.250,280.273 356.250 C 280.166 356.250,280.078 356.789,280.078 357.448 M228.224 358.398 C 228.228 359.258,228.308 359.563,228.401 359.077 C 228.495 358.592,228.491 357.888,228.393 357.515 C 228.296 357.142,228.219 357.539,228.224 358.398 M272.754 362.769 C 273.130 362.868,273.745 362.868,274.121 362.769 C 274.497 362.671,274.189 362.591,273.438 362.591 C 272.686 362.591,272.378 362.671,272.754 362.769 M270.020 363.160 C 270.396 363.258,271.011 363.258,271.387 363.160 C 271.763 363.062,271.455 362.981,270.703 362.981 C 269.951 362.981,269.644 363.062,270.020 363.160 M266.895 363.551 C 267.271 363.649,267.886 363.649,268.262 363.551 C 268.638 363.452,268.330 363.372,267.578 363.372 C 266.826 363.372,266.519 363.452,266.895 363.551 M263.770 363.941 C 264.146 364.039,264.761 364.039,265.137 363.941 C 265.513 363.843,265.205 363.763,264.453 363.763 C 263.701 363.763,263.394 363.843,263.770 363.941 M260.645 364.332 C 261.021 364.430,261.636 364.430,262.012 364.332 C 262.388 364.234,262.080 364.153,261.328 364.153 C 260.576 364.153,260.269 364.234,260.645 364.332 M257.520 364.722 C 257.896 364.821,258.511 364.821,258.887 364.722 C 259.263 364.624,258.955 364.544,258.203 364.544 C 257.451 364.544,257.144 364.624,257.520 364.722 M229.297 365.174 C 229.297 365.355,229.676 365.839,230.139 366.248 L 230.980 366.992 230.289 365.918 C 229.576 364.810,229.297 364.601,229.297 365.174 M254.785 365.113 C 255.161 365.211,255.776 365.211,256.152 365.113 C 256.528 365.015,256.221 364.934,255.469 364.934 C 254.717 364.934,254.409 365.015,254.785 365.113 M251.660 365.504 C 252.036 365.602,252.651 365.602,253.027 365.504 C 253.403 365.405,253.096 365.325,252.344 365.325 C 251.592 365.325,251.284 365.405,251.660 365.504 M248.535 365.894 C 248.911 365.993,249.526 365.993,249.902 365.894 C 250.278 365.796,249.971 365.716,249.219 365.716 C 248.467 365.716,248.159 365.796,248.535 365.894 M245.410 366.285 C 245.786 366.383,246.401 366.383,246.777 366.285 C 247.153 366.187,246.846 366.106,246.094 366.106 C 245.342 366.106,245.034 366.187,245.410 366.285 M236.426 367.457 C 236.802 367.555,237.417 367.555,237.793 367.457 C 238.169 367.359,237.861 367.278,237.109 367.278 C 236.357 367.278,236.050 367.359,236.426 367.457 " stroke="none" fill="#8c5a25" fill-rule="evenodd"></path><path id="path8" d="M54.414 233.885 C 56.304 233.957,59.292 233.956,61.054 233.884 C 62.816 233.812,61.270 233.753,57.617 233.754 C 53.965 233.754,52.523 233.813,54.414 233.885 M80.176 233.874 C 80.767 233.963,81.733 233.963,82.324 233.874 C 82.915 233.784,82.432 233.711,81.250 233.711 C 80.068 233.711,79.585 233.784,80.176 233.874 M85.918 236.611 C 85.811 237.518,85.872 238.112,86.054 237.930 C 86.236 237.748,86.324 237.006,86.249 236.280 C 86.117 234.993,86.109 235.002,85.918 236.611 M86.069 254.688 C 86.069 256.299,86.138 256.958,86.222 256.152 C 86.306 255.347,86.306 254.028,86.222 253.223 C 86.138 252.417,86.069 253.076,86.069 254.688 M86.097 278.516 C 86.097 282.061,86.156 283.511,86.228 281.738 C 86.301 279.966,86.301 277.065,86.228 275.293 C 86.156 273.521,86.097 274.971,86.097 278.516 M46.320 299.414 C 46.688 312.988,54.638 321.471,66.992 321.471 C 78.894 321.471,86.591 313.716,86.943 301.367 C 87.017 298.789,86.980 297.004,86.862 297.401 C 86.690 297.978,86.342 298.093,85.120 297.977 L 83.594 297.831 83.594 299.626 C 83.594 300.613,83.311 302.375,82.965 303.542 C 77.798 320.983,48.438 318.068,48.438 300.113 C 48.438 298.596,48.347 298.438,47.481 298.438 C 46.624 298.438,46.508 298.245,46.359 296.582 C 46.267 295.562,46.250 296.836,46.320 299.414 M83.692 295.898 C 83.697 296.758,83.777 297.063,83.870 296.577 C 83.963 296.092,83.960 295.388,83.862 295.015 C 83.764 294.642,83.688 295.039,83.692 295.898 " stroke="none" fill="#b57404" fill-rule="evenodd"></path></g></svg>