<svg id="svg" version="1.1" xmlns="http://www.w3.org/2000/svg" xmlns:xlink="http://www.w3.org/1999/xlink" width="400" height="400" viewBox="0, 0, 400,400"><g id="svgg"><path id="path0" d="M274.365 105.239 C 269.214 111.640,264.550 117.460,264.000 118.172 C 261.500 121.409,260.517 122.648,259.398 123.975 C 258.737 124.759,257.570 126.210,256.804 127.200 C 256.038 128.190,255.191 129.270,254.921 129.600 C 254.652 129.930,252.919 132.090,251.070 134.400 C 248.341 137.809,223.621 168.631,221.876 170.800 C 221.611 171.130,217.842 175.850,213.501 181.290 C 209.161 186.729,205.348 191.499,205.028 191.890 C 204.708 192.280,203.259 194.085,201.807 195.900 C 198.598 199.913,199.235 199.929,194.075 195.700 C 191.726 193.775,189.468 191.930,189.057 191.600 C 188.647 191.270,188.106 190.816,187.855 190.592 C 187.605 190.368,183.440 186.952,178.600 183.002 C 173.760 179.052,169.710 175.725,169.600 175.608 C 169.490 175.491,168.741 174.904,167.935 174.304 C 167.129 173.703,166.229 172.984,165.935 172.704 C 165.641 172.425,164.410 171.387,163.200 170.398 C 161.990 169.409,160.651 168.285,160.225 167.900 C 159.065 166.853,158.983 166.906,156.306 170.473 C 155.704 171.275,154.984 172.176,154.706 172.475 C 153.866 173.378,150.338 177.614,147.794 180.773 C 146.477 182.409,143.465 186.088,141.100 188.950 C 136.032 195.084,136.143 194.452,139.646 197.172 C 141.185 198.367,144.819 201.304,147.722 203.700 C 153.879 208.781,155.299 209.945,157.200 211.466 C 157.970 212.083,158.690 212.689,158.800 212.813 C 158.910 212.936,160.800 214.499,163.000 216.284 C 165.200 218.070,168.800 221.007,171.000 222.812 C 173.200 224.617,175.696 226.658,176.546 227.347 C 177.397 228.036,179.936 230.130,182.190 232.000 C 184.444 233.870,186.899 235.879,187.644 236.464 C 188.390 237.050,189.720 238.101,190.599 238.800 C 194.351 241.781,199.427 243.075,204.098 242.242 C 210.105 241.170,212.549 239.399,218.742 231.632 C 221.300 228.424,223.484 225.710,223.596 225.600 C 223.708 225.490,224.428 224.590,225.194 223.600 C 226.680 221.682,227.355 220.850,228.545 219.466 C 228.955 218.990,229.764 217.970,230.343 217.200 C 230.922 216.430,231.492 215.710,231.611 215.600 C 231.729 215.490,234.656 211.847,238.114 207.504 C 241.572 203.161,244.661 199.291,244.978 198.904 C 247.063 196.362,271.890 165.364,273.400 163.418 C 274.060 162.567,275.230 161.109,276.000 160.178 C 276.770 159.246,278.210 157.459,279.200 156.206 C 280.190 154.952,281.540 153.255,282.200 152.434 C 283.665 150.612,284.854 149.123,289.575 143.200 C 291.592 140.670,293.460 138.330,293.726 138.000 C 297.260 133.615,301.128 128.834,301.654 128.200 C 302.371 127.336,310.698 116.905,311.291 116.128 C 311.541 115.801,310.444 114.698,307.726 112.542 C 305.567 110.830,303.604 109.242,303.363 109.014 C 303.123 108.786,302.326 108.150,301.592 107.600 C 300.052 106.446,297.892 104.712,297.600 104.396 C 297.490 104.277,296.591 103.554,295.601 102.790 C 294.612 102.025,293.442 101.103,293.001 100.739 C 289.972 98.240,284.066 93.600,283.914 93.600 C 283.813 93.600,279.516 98.837,274.365 105.239 " stroke="none" fill="#fcb404" fill-rule="evenodd"></path><path id="path1" d="M187.400 64.853 C 178.122 65.996,169.456 67.591,163.400 69.270 C 160.465 70.084,154.609 72.023,153.905 72.414 C 153.523 72.626,152.936 72.800,152.600 72.800 C 152.264 72.800,151.677 72.965,151.295 73.166 C 150.913 73.368,149.880 73.839,149.000 74.214 C 148.120 74.588,146.770 75.163,146.000 75.491 C 138.534 78.672,121.571 88.389,120.000 90.384 C 119.890 90.524,119.170 91.071,118.400 91.600 C 117.630 92.129,116.910 92.663,116.800 92.788 C 116.690 92.912,115.070 94.255,113.200 95.771 C 108.827 99.318,99.318 108.827,95.771 113.200 C 94.255 115.070,92.912 116.690,92.788 116.800 C 92.663 116.910,92.129 117.630,91.600 118.400 C 91.071 119.170,90.524 119.890,90.384 120.000 C 88.986 121.101,81.325 133.860,78.136 140.400 C 76.206 144.357,75.715 145.433,74.166 149.100 C 73.818 149.925,73.368 150.913,73.166 151.295 C 72.965 151.677,72.800 152.264,72.800 152.600 C 72.800 152.936,72.626 153.523,72.414 153.905 C 72.014 154.626,70.040 160.602,69.278 163.400 C 62.765 187.325,62.765 212.706,69.278 236.600 C 70.042 239.406,72.014 245.375,72.414 246.095 C 72.626 246.477,72.800 247.064,72.800 247.400 C 72.800 247.736,72.965 248.323,73.166 248.705 C 73.368 249.087,73.818 250.075,74.166 250.900 C 75.715 254.567,76.206 255.643,78.136 259.600 C 81.450 266.397,89.249 279.262,91.373 281.437 C 91.608 281.677,92.250 282.475,92.800 283.211 C 97.758 289.843,110.157 302.242,116.789 307.200 C 117.525 307.750,118.323 308.392,118.563 308.627 C 122.144 312.124,141.749 323.168,149.400 325.997 C 149.840 326.160,150.650 326.479,151.200 326.706 C 151.750 326.933,152.830 327.336,153.600 327.600 C 154.370 327.864,155.360 328.223,155.800 328.397 C 157.414 329.035,162.103 330.433,165.200 331.200 C 165.970 331.391,167.320 331.744,168.200 331.986 C 170.178 332.529,176.754 333.761,182.600 334.684 C 188.948 335.686,211.052 335.686,217.400 334.684 C 222.398 333.895,229.424 332.596,231.800 332.022 C 232.680 331.810,233.940 331.524,234.600 331.388 C 235.260 331.251,236.160 330.994,236.600 330.815 C 237.040 330.637,238.210 330.273,239.200 330.007 C 240.190 329.740,241.313 329.360,241.695 329.161 C 242.077 328.962,242.716 328.800,243.115 328.800 C 243.514 328.800,244.011 328.657,244.220 328.482 C 244.429 328.307,245.320 327.935,246.200 327.655 C 247.080 327.376,248.205 326.979,248.700 326.774 C 249.195 326.568,250.050 326.220,250.600 326.000 C 252.932 325.067,253.638 324.747,258.400 322.466 C 266.011 318.821,276.877 312.312,281.517 308.620 C 292.209 300.110,299.789 292.529,308.616 281.517 C 313.184 275.818,321.931 260.541,325.231 252.500 C 325.434 252.005,325.804 251.105,326.054 250.500 C 326.950 248.325,327.155 247.776,327.655 246.200 C 327.935 245.320,328.307 244.429,328.482 244.220 C 328.657 244.011,328.800 243.514,328.800 243.115 C 328.800 242.716,328.962 242.077,329.161 241.695 C 329.360 241.313,329.740 240.190,330.007 239.200 C 330.273 238.210,330.637 237.040,330.815 236.600 C 330.994 236.160,331.251 235.260,331.388 234.600 C 331.524 233.940,331.810 232.680,332.022 231.800 C 333.828 224.313,335.159 214.756,335.461 207.100 L 335.725 200.400 320.713 200.400 L 305.701 200.400 305.449 204.900 C 305.036 212.282,304.437 216.416,302.423 225.764 C 300.802 233.292,296.305 244.161,290.851 253.731 C 283.955 265.833,271.339 279.169,258.828 287.581 C 248.877 294.272,235.289 300.372,225.764 302.423 C 214.410 304.869,210.006 305.380,200.200 305.390 C 192.826 305.398,187.617 304.999,182.000 303.994 C 179.857 303.610,178.302 303.296,174.200 302.418 C 158.583 299.076,138.305 287.507,125.411 274.584 C 121.277 270.440,114.000 261.677,114.000 260.842 C 114.000 260.636,113.853 260.407,113.672 260.333 C 113.303 260.183,110.000 255.381,110.000 254.994 C 110.000 254.857,109.490 253.992,108.866 253.072 C 106.337 249.344,102.002 239.742,99.715 232.800 C 94.491 216.945,93.165 199.070,95.974 182.400 C 97.982 170.484,102.848 156.955,108.418 147.800 C 109.088 146.700,109.738 145.485,109.864 145.100 C 109.990 144.715,110.252 144.400,110.447 144.400 C 110.641 144.400,110.800 144.207,110.800 143.972 C 110.800 143.610,112.629 140.715,113.689 139.400 C 113.867 139.180,114.672 138.100,115.479 137.000 C 121.033 129.430,129.430 121.033,137.000 115.479 C 138.100 114.672,139.180 113.867,139.400 113.689 C 140.715 112.629,143.610 110.800,143.972 110.800 C 144.207 110.800,144.400 110.641,144.400 110.447 C 144.400 110.252,144.715 109.990,145.100 109.864 C 145.485 109.738,146.700 109.088,147.800 108.418 C 160.601 100.630,177.785 95.616,195.600 94.470 L 199.800 94.200 199.905 79.300 L 200.010 64.400 195.105 64.454 C 192.407 64.484,188.940 64.664,187.400 64.853 " stroke="none" fill="#647cdc" fill-rule="evenodd"></path><path id="path2" d="M0.000 200.000 L 0.000 400.000 200.000 400.000 L 400.000 400.000 400.000 200.000 L 400.000 0.000 200.000 0.000 L 0.000 0.000 0.000 200.000 M200.394 79.100 C 200.391 87.405,200.245 94.425,200.070 94.700 C 199.856 95.037,197.663 95.331,193.376 95.600 C 187.053 95.995,183.560 96.408,179.900 97.193 C 175.462 98.144,174.523 98.362,173.100 98.770 C 172.275 99.006,171.015 99.358,170.300 99.552 C 163.509 101.389,147.113 108.646,146.467 110.100 C 146.393 110.265,146.160 110.400,145.949 110.400 C 143.728 110.400,128.230 123.144,122.391 129.771 C 117.198 135.666,110.400 144.837,110.400 145.949 C 110.400 146.160,110.265 146.393,110.100 146.467 C 108.646 147.113,101.389 163.509,99.552 170.300 C 99.358 171.015,99.006 172.275,98.770 173.100 C 98.362 174.523,98.144 175.462,97.193 179.900 C 94.828 190.933,94.828 209.067,97.193 220.100 C 98.144 224.538,98.362 225.477,98.770 226.900 C 99.006 227.725,99.362 228.985,99.559 229.700 C 101.035 235.036,103.621 241.524,106.534 247.200 C 107.832 249.730,109.098 252.204,109.347 252.697 C 109.596 253.190,109.935 253.595,110.100 253.597 C 110.265 253.599,110.400 253.787,110.400 254.015 C 110.400 257.413,126.576 275.635,136.027 282.884 C 141.328 286.949,145.471 289.653,150.600 292.392 C 151.700 292.979,152.960 293.657,153.400 293.898 C 158.547 296.718,170.110 300.766,177.400 302.302 C 186.700 304.261,189.377 304.528,199.800 304.537 C 210.759 304.547,212.871 304.327,224.000 302.013 C 227.536 301.277,236.295 298.541,239.400 297.201 C 242.176 296.003,245.920 294.292,246.600 293.910 C 247.040 293.662,248.300 292.979,249.400 292.392 C 267.296 282.835,282.835 267.296,292.392 249.400 C 292.979 248.300,293.662 247.040,293.910 246.600 C 294.292 245.920,296.003 242.176,297.201 239.400 C 298.541 236.295,301.277 227.536,302.013 224.000 C 303.791 215.447,304.285 211.839,304.613 205.010 C 304.760 201.961,305.017 200.110,305.322 199.916 C 305.886 199.558,334.842 199.488,335.767 199.843 C 336.534 200.137,336.596 203.107,336.002 211.200 C 335.512 217.881,335.111 220.667,333.525 228.400 C 332.469 233.546,330.299 241.487,329.563 242.895 C 329.363 243.277,329.200 243.864,329.200 244.200 C 329.200 244.536,328.992 245.213,328.738 245.705 C 327.810 247.499,327.600 247.997,327.600 248.399 C 327.600 248.624,327.222 249.662,326.760 250.704 C 326.298 251.747,325.780 252.960,325.609 253.400 C 325.438 253.840,324.714 255.460,324.000 257.000 C 323.286 258.540,322.499 260.248,322.251 260.794 C 320.565 264.512,311.246 279.772,310.034 280.800 C 309.904 280.910,308.989 282.080,308.000 283.400 C 307.011 284.720,306.110 285.890,305.999 286.000 C 305.887 286.110,304.814 287.370,303.615 288.800 C 300.806 292.150,292.150 300.806,288.800 303.615 C 287.370 304.814,286.110 305.887,286.000 305.999 C 285.890 306.110,284.720 307.011,283.400 308.000 C 282.080 308.989,280.910 309.904,280.800 310.034 C 279.772 311.246,264.512 320.565,260.794 322.251 C 260.248 322.499,258.540 323.286,257.000 324.000 C 255.460 324.714,253.840 325.438,253.400 325.609 C 252.960 325.780,251.747 326.298,250.704 326.760 C 249.662 327.222,248.624 327.600,248.399 327.600 C 248.174 327.600,247.632 327.780,247.195 328.000 C 246.758 328.220,246.042 328.580,245.605 328.800 C 245.168 329.020,244.536 329.200,244.200 329.200 C 243.864 329.200,243.277 329.363,242.895 329.563 C 240.383 330.876,227.444 333.971,219.400 335.184 C 209.030 336.747,190.711 336.741,180.600 335.171 C 177.481 334.687,168.965 332.998,166.800 332.434 C 161.904 331.159,158.656 330.214,157.000 329.585 C 156.560 329.418,155.570 329.064,154.800 328.800 C 154.030 328.536,152.995 328.157,152.500 327.960 C 152.005 327.762,151.150 327.420,150.600 327.200 C 150.050 326.980,149.195 326.638,148.700 326.441 C 142.874 324.115,138.963 322.202,131.200 317.879 C 129.024 316.667,121.373 311.659,120.073 310.595 C 119.703 310.292,118.285 309.216,116.921 308.204 C 110.039 303.095,100.728 294.111,95.200 287.245 C 94.430 286.288,93.611 285.302,93.380 285.053 C 89.823 281.219,82.209 269.499,78.791 262.600 C 78.246 261.500,77.665 260.540,77.500 260.467 C 77.335 260.393,77.200 260.104,77.200 259.823 C 77.200 259.542,76.636 258.162,75.947 256.756 C 75.258 255.350,74.538 253.795,74.347 253.300 C 74.156 252.805,73.820 251.950,73.600 251.400 C 73.380 250.850,73.044 249.995,72.854 249.500 C 72.663 249.005,72.310 248.150,72.069 247.600 C 69.379 241.463,66.271 228.679,64.579 216.800 C 63.743 210.933,63.743 189.067,64.579 183.200 C 65.765 174.872,67.355 167.007,68.824 162.200 C 69.766 159.120,71.681 153.309,72.021 152.500 C 72.230 152.005,72.556 151.195,72.746 150.700 C 74.663 145.721,78.780 137.152,81.728 132.006 C 84.240 127.621,87.999 121.838,88.449 121.667 C 88.642 121.593,88.800 121.278,88.800 120.967 C 88.800 120.655,88.941 120.400,89.114 120.400 C 89.286 120.400,89.720 119.905,90.079 119.300 C 90.437 118.695,91.060 117.819,91.465 117.353 C 91.869 116.888,92.650 115.911,93.200 115.184 C 93.750 114.457,94.560 113.485,95.000 113.024 C 95.440 112.564,96.519 111.290,97.397 110.194 C 99.460 107.619,107.619 99.460,110.194 97.397 C 111.290 96.519,112.564 95.440,113.024 95.000 C 113.485 94.560,114.457 93.750,115.184 93.200 C 115.911 92.650,116.888 91.869,117.353 91.465 C 117.819 91.060,118.695 90.437,119.300 90.079 C 119.905 89.720,120.400 89.286,120.400 89.114 C 120.400 88.941,120.655 88.800,120.967 88.800 C 121.278 88.800,121.593 88.642,121.667 88.449 C 121.838 87.999,127.621 84.240,132.006 81.728 C 137.152 78.780,145.721 74.663,150.700 72.746 C 151.195 72.556,152.005 72.228,152.500 72.017 C 153.628 71.536,159.396 69.612,161.000 69.181 C 169.422 66.918,174.709 65.822,183.800 64.457 C 185.120 64.259,189.395 64.075,193.300 64.048 L 200.400 64.000 200.394 79.100 M285.266 93.700 C 285.853 94.195,286.665 94.870,287.072 95.200 C 287.478 95.530,288.365 96.250,289.043 96.800 C 289.721 97.350,290.973 98.340,291.827 99.000 C 294.100 100.757,301.728 106.902,302.237 107.385 C 302.477 107.613,303.274 108.250,304.008 108.800 C 305.623 110.010,307.525 111.550,308.576 112.500 C 309.003 112.886,309.946 113.606,310.673 114.100 C 312.049 115.037,312.355 116.097,311.500 116.965 C 311.225 117.245,310.550 118.066,310.000 118.790 C 309.450 119.514,308.730 120.427,308.400 120.820 C 307.319 122.105,306.620 122.977,305.210 124.801 C 304.446 125.791,303.725 126.690,303.609 126.800 C 303.492 126.910,302.327 128.350,301.019 130.000 C 299.711 131.650,298.542 133.090,298.421 133.200 C 298.299 133.310,297.572 134.210,296.806 135.200 C 294.810 137.775,294.301 138.394,293.391 139.350 C 292.947 139.818,292.139 140.830,291.597 141.600 C 291.055 142.370,290.311 143.360,289.945 143.800 C 289.578 144.240,287.631 146.670,285.618 149.200 C 283.605 151.730,281.740 154.070,281.473 154.400 C 281.207 154.730,280.361 155.810,279.594 156.800 C 278.828 157.789,277.928 158.869,277.596 159.200 C 277.263 159.530,276.501 160.459,275.902 161.265 C 275.302 162.071,274.578 162.971,274.293 163.265 C 274.007 163.559,273.338 164.430,272.806 165.200 C 272.274 165.970,271.734 166.690,271.606 166.800 C 271.478 166.910,270.659 167.900,269.786 169.000 C 268.914 170.100,268.109 171.090,267.998 171.200 C 267.886 171.310,267.304 172.059,266.704 172.865 C 266.103 173.671,265.384 174.576,265.106 174.875 C 264.828 175.175,263.972 176.225,263.206 177.210 C 261.843 178.958,261.220 179.731,260.000 181.180 C 259.670 181.573,258.950 182.490,258.400 183.220 C 257.850 183.950,256.770 185.301,256.000 186.223 C 255.230 187.145,253.160 189.745,251.400 192.000 C 249.640 194.255,247.570 196.864,246.800 197.798 C 244.995 199.987,244.484 200.623,242.794 202.784 C 242.028 203.766,241.040 204.962,240.600 205.443 C 240.160 205.924,238.720 207.706,237.400 209.404 C 233.465 214.464,229.490 219.433,227.855 221.334 C 227.445 221.810,226.637 222.830,226.059 223.600 C 225.481 224.370,224.728 225.270,224.385 225.600 C 224.043 225.930,223.329 226.830,222.800 227.600 C 222.271 228.370,221.739 229.090,221.616 229.200 C 221.494 229.310,219.964 231.200,218.215 233.400 C 214.861 237.619,212.531 239.975,211.700 239.991 C 211.425 239.996,211.200 240.136,211.200 240.302 C 211.200 240.469,210.615 240.840,209.900 241.129 C 209.185 241.417,208.287 241.821,207.905 242.026 C 207.523 242.232,206.859 242.400,206.429 242.400 C 205.999 242.400,205.536 242.580,205.400 242.800 C 205.264 243.020,203.554 243.200,201.600 243.200 C 199.646 243.200,197.936 243.020,197.800 242.800 C 197.664 242.580,197.034 242.400,196.400 242.400 C 195.766 242.400,195.136 242.220,195.000 242.000 C 194.864 241.780,194.474 241.600,194.132 241.600 C 193.170 241.600,183.794 234.639,181.200 231.999 C 181.090 231.887,180.321 231.289,179.491 230.670 C 178.661 230.052,177.580 229.153,177.088 228.673 C 176.597 228.193,175.536 227.308,174.732 226.706 C 173.927 226.104,173.029 225.379,172.735 225.093 C 172.441 224.808,170.376 223.104,168.147 221.306 C 165.918 219.508,163.848 217.803,163.547 217.518 C 163.246 217.233,162.341 216.508,161.535 215.906 C 160.729 215.304,159.828 214.584,159.534 214.306 C 159.240 214.028,158.149 213.117,157.109 212.281 C 156.070 211.446,154.990 210.546,154.710 210.281 C 154.429 210.017,153.541 209.308,152.735 208.706 C 151.929 208.104,151.029 207.379,150.735 207.093 C 150.302 206.674,146.429 203.493,140.648 198.809 C 135.431 194.583,135.248 193.968,138.384 191.200 C 138.613 190.998,141.693 187.262,142.800 185.843 C 143.130 185.421,143.952 184.428,144.626 183.637 C 145.642 182.447,147.956 179.610,153.591 172.647 C 158.328 166.792,159.383 165.946,160.400 167.185 C 160.510 167.319,162.040 168.586,163.800 170.000 C 165.560 171.414,167.090 172.670,167.200 172.791 C 167.310 172.912,168.390 173.816,169.600 174.800 C 170.810 175.784,171.890 176.683,172.000 176.797 C 172.110 176.911,172.830 177.478,173.600 178.058 C 174.370 178.637,175.540 179.594,176.200 180.184 C 176.860 180.774,178.030 181.739,178.800 182.329 C 179.570 182.918,181.283 184.300,182.606 185.400 C 183.929 186.500,185.797 188.030,186.758 188.800 C 187.719 189.570,188.887 190.564,189.353 191.009 C 189.819 191.453,190.830 192.261,191.600 192.803 C 192.370 193.345,193.540 194.285,194.200 194.893 C 198.919 199.239,198.215 199.353,202.897 193.484 C 205.040 190.798,207.200 188.129,207.697 187.553 C 208.193 186.978,209.050 185.912,209.600 185.185 C 210.150 184.458,211.764 182.409,213.188 180.631 C 216.687 176.262,216.548 176.434,217.006 175.886 C 217.229 175.619,218.039 174.591,218.806 173.601 C 220.228 171.766,220.935 170.885,222.000 169.620 C 222.330 169.227,223.050 168.319,223.600 167.600 C 224.150 166.881,224.935 165.912,225.345 165.447 C 225.755 164.981,226.564 163.970,227.143 163.200 C 227.722 162.430,228.291 161.710,228.408 161.600 C 228.525 161.490,229.241 160.590,230.000 159.600 C 230.759 158.610,231.476 157.710,231.593 157.600 C 231.711 157.490,233.954 154.700,236.578 151.400 C 239.202 148.100,241.639 145.130,241.993 144.800 C 242.348 144.470,243.076 143.570,243.611 142.800 C 244.147 142.030,244.903 141.040,245.292 140.600 C 245.682 140.160,247.624 137.730,249.610 135.200 C 251.595 132.670,253.622 130.148,254.115 129.596 C 254.607 129.043,255.449 127.963,255.986 127.196 C 256.523 126.428,257.241 125.530,257.581 125.200 C 257.921 124.869,258.828 123.789,259.594 122.800 C 260.361 121.810,261.208 120.730,261.476 120.400 C 261.744 120.070,263.093 118.360,264.473 116.600 C 265.854 114.840,267.082 113.310,267.202 113.200 C 267.322 113.090,268.041 112.190,268.800 111.200 C 269.559 110.210,270.274 109.310,270.390 109.200 C 270.505 109.090,271.228 108.190,271.994 107.200 C 273.349 105.451,273.955 104.699,275.200 103.220 C 275.530 102.827,276.250 101.919,276.800 101.200 C 277.350 100.481,278.135 99.512,278.545 99.047 C 278.955 98.581,279.755 97.570,280.322 96.800 C 283.238 92.840,283.817 92.478,285.266 93.700 " stroke="none" fill="#fbfbfb" fill-rule="evenodd"></path><path id="path3" d="M282.921 94.100 C 282.472 94.595,276.192 102.380,268.967 111.400 C 261.742 120.420,254.605 129.330,253.107 131.200 C 251.609 133.070,249.622 135.555,248.692 136.723 C 247.761 137.891,246.730 139.172,246.400 139.570 C 246.070 139.968,245.350 140.886,244.800 141.610 C 244.250 142.334,243.617 143.123,243.394 143.363 C 243.170 143.604,237.664 150.460,231.157 158.600 C 216.406 177.051,202.544 194.345,201.660 195.400 C 201.291 195.840,200.574 196.785,200.067 197.500 C 198.894 199.154,198.914 199.157,196.137 196.903 C 194.852 195.860,193.465 194.735,193.055 194.403 C 192.646 194.072,192.106 193.613,191.855 193.384 C 191.605 193.156,189.870 191.720,188.000 190.194 C 181.048 184.519,175.347 179.851,173.600 178.400 C 172.610 177.578,169.640 175.148,167.000 172.999 C 164.360 170.850,161.885 168.818,161.500 168.484 C 161.115 168.149,160.806 168.039,160.812 168.238 C 160.819 168.437,161.584 169.178,162.512 169.885 C 163.441 170.592,164.740 171.647,165.400 172.230 C 166.060 172.813,167.230 173.763,168.000 174.342 C 168.770 174.922,169.490 175.491,169.600 175.608 C 169.759 175.777,185.149 188.384,188.145 190.800 C 188.554 191.130,189.094 191.582,189.345 191.805 C 191.760 193.956,198.435 199.200,198.757 199.200 C 198.983 199.200,200.356 197.715,201.807 195.900 C 203.259 194.085,204.708 192.280,205.028 191.890 C 205.348 191.499,209.161 186.729,213.501 181.290 C 217.842 175.850,221.611 171.130,221.876 170.800 C 223.621 168.631,248.341 137.809,251.070 134.400 C 252.919 132.090,254.652 129.930,254.921 129.600 C 255.191 129.270,256.038 128.190,256.804 127.200 C 257.570 126.210,258.737 124.759,259.398 123.975 C 260.059 123.191,261.076 121.931,261.657 121.175 C 264.243 117.811,282.679 94.825,283.426 94.034 C 283.934 93.496,286.225 95.088,292.500 100.338 C 292.885 100.660,293.199 100.761,293.197 100.562 C 293.196 100.363,292.600 99.795,291.873 99.300 C 291.146 98.806,290.203 98.086,289.776 97.700 C 289.349 97.315,288.369 96.525,287.600 95.945 C 286.830 95.365,285.767 94.510,285.239 94.045 C 284.041 92.992,283.926 92.994,282.921 94.100 M293.616 101.066 C 293.624 101.250,294.461 102.011,295.474 102.757 C 296.488 103.503,297.199 103.922,297.053 103.686 C 296.636 103.010,293.598 100.696,293.616 101.066 M297.612 104.266 C 297.619 104.450,298.471 105.230,299.505 106.000 C 301.605 107.564,302.670 108.400,303.345 109.015 C 304.942 110.469,309.597 113.979,309.581 113.717 C 309.570 113.543,307.735 111.960,305.503 110.200 C 303.271 108.440,300.580 106.310,299.522 105.466 C 298.465 104.622,297.606 104.082,297.612 104.266 M310.695 114.868 L 311.590 115.841 307.895 120.423 C 303.179 126.270,301.032 129.117,302.656 127.369 C 304.014 125.908,305.012 124.702,306.494 122.727 C 307.096 121.925,307.824 121.029,308.113 120.735 C 311.504 117.284,312.274 115.403,310.692 114.439 L 309.800 113.895 310.695 114.868 M297.928 132.719 C 296.238 134.854,294.438 137.120,293.928 137.755 C 293.418 138.391,291.404 140.911,289.454 143.355 C 284.430 149.654,283.553 150.750,282.200 152.434 C 281.540 153.255,280.190 154.952,279.200 156.206 C 278.210 157.459,276.770 159.246,276.000 160.178 C 275.230 161.109,274.060 162.567,273.400 163.418 C 271.890 165.364,247.063 196.362,244.978 198.904 C 244.661 199.291,241.572 203.161,238.114 207.504 C 234.656 211.847,231.730 215.490,231.613 215.600 C 231.496 215.710,230.772 216.610,230.006 217.600 C 228.520 219.518,227.845 220.350,226.655 221.734 C 226.245 222.210,225.436 223.230,224.857 224.000 C 224.278 224.770,223.712 225.490,223.598 225.600 C 223.485 225.710,221.300 228.424,218.742 231.632 C 212.549 239.399,210.105 241.170,204.098 242.242 C 199.427 243.075,194.351 241.781,190.599 238.800 C 189.720 238.101,188.390 237.050,187.644 236.464 C 186.899 235.879,184.444 233.870,182.190 232.000 C 179.936 230.130,177.397 228.036,176.546 227.347 C 175.696 226.658,173.200 224.617,171.000 222.812 C 168.800 221.007,165.200 218.070,163.000 216.284 C 160.800 214.499,158.910 212.936,158.800 212.813 C 158.690 212.689,157.970 212.083,157.200 211.466 C 155.299 209.945,153.879 208.781,147.722 203.700 C 144.819 201.304,141.185 198.367,139.646 197.172 C 136.142 194.451,136.035 195.066,141.073 188.970 C 143.423 186.126,146.382 182.543,147.647 181.007 C 148.912 179.471,149.872 178.138,149.779 178.046 C 149.687 177.953,149.204 178.399,148.706 179.036 C 148.208 179.673,146.756 181.455,145.480 182.997 C 144.204 184.539,142.944 186.070,142.680 186.400 C 139.850 189.937,136.934 193.448,136.661 193.648 C 135.911 194.195,136.778 195.235,140.600 198.374 C 142.800 200.180,144.960 201.962,145.400 202.332 C 145.840 202.703,151.088 207.006,157.062 211.894 C 163.036 216.782,168.166 221.010,168.462 221.291 C 168.758 221.571,169.990 222.559,171.200 223.486 C 172.410 224.413,173.940 225.648,174.600 226.231 C 175.692 227.195,180.035 230.760,188.325 237.500 C 196.085 243.807,203.730 244.703,211.036 240.158 C 213.942 238.351,213.132 239.303,235.004 211.971 C 245.995 198.237,255.083 186.910,255.200 186.800 C 255.316 186.690,258.282 183.000,261.790 178.600 C 265.297 174.200,268.265 170.510,268.384 170.400 C 268.503 170.290,269.228 169.390,269.994 168.400 C 270.761 167.410,271.607 166.330,271.872 166.000 C 272.138 165.670,275.882 160.990,280.192 155.600 C 284.501 150.210,288.249 145.530,288.519 145.200 C 288.790 144.870,289.639 143.794,290.406 142.810 C 291.172 141.825,292.028 140.775,292.306 140.475 C 292.584 140.176,293.303 139.271,293.904 138.465 C 294.504 137.659,295.096 136.910,295.219 136.800 C 295.974 136.123,301.559 128.803,301.307 128.819 C 301.138 128.830,299.618 130.585,297.928 132.719 M154.957 171.500 C 150.222 177.233,149.470 178.222,151.239 176.389 C 152.800 174.770,155.922 171.086,156.786 169.843 C 158.298 167.665,159.125 167.040,159.775 167.580 C 160.124 167.869,160.400 167.919,160.400 167.692 C 160.400 167.353,159.523 166.800,158.986 166.800 C 158.905 166.800,157.091 168.915,154.957 171.500 " stroke="none" fill="#fce096" fill-rule="evenodd"></path><path id="path4" d="M194.100 64.294 C 195.145 64.376,196.855 64.376,197.900 64.294 C 198.945 64.212,198.090 64.144,196.000 64.144 C 193.910 64.144,193.055 64.212,194.100 64.294 M188.100 64.676 C 188.485 64.776,189.115 64.776,189.500 64.676 C 189.885 64.575,189.570 64.493,188.800 64.493 C 188.030 64.493,187.715 64.575,188.100 64.676 M184.100 65.087 C 184.705 65.178,185.695 65.178,186.300 65.087 C 186.905 64.995,186.410 64.920,185.200 64.920 C 183.990 64.920,183.495 64.995,184.100 65.087 M178.500 65.876 C 178.885 65.976,179.515 65.976,179.900 65.876 C 180.285 65.775,179.970 65.693,179.200 65.693 C 178.430 65.693,178.115 65.775,178.500 65.876 M173.700 66.676 C 174.085 66.776,174.715 66.776,175.100 66.676 C 175.485 66.575,175.170 66.493,174.400 66.493 C 173.630 66.493,173.315 66.575,173.700 66.676 M169.000 67.600 C 168.496 67.817,168.422 67.944,168.800 67.944 C 169.130 67.944,169.760 67.789,170.200 67.600 C 170.704 67.383,170.778 67.256,170.400 67.256 C 170.070 67.256,169.440 67.411,169.000 67.600 M165.800 68.400 C 165.296 68.617,165.222 68.744,165.600 68.744 C 165.930 68.744,166.560 68.589,167.000 68.400 C 167.504 68.183,167.578 68.056,167.200 68.056 C 166.870 68.056,166.240 68.211,165.800 68.400 M132.400 82.036 C 131.736 82.579,131.669 82.715,132.200 82.440 C 133.505 81.766,134.228 81.212,133.800 81.215 C 133.580 81.217,132.950 81.586,132.400 82.036 M114.000 94.670 C 112.570 95.858,111.040 97.209,110.600 97.672 C 110.160 98.134,111.330 97.281,113.200 95.777 C 115.070 94.272,116.675 92.987,116.767 92.920 C 116.858 92.854,116.858 92.735,116.767 92.654 C 116.675 92.574,115.430 93.481,114.000 94.670 M195.076 94.417 C 192.478 94.581,190.257 94.810,190.140 94.926 C 189.774 95.292,199.381 94.719,199.780 94.350 C 199.989 94.158,200.079 94.027,199.980 94.060 C 199.881 94.093,197.674 94.253,195.076 94.417 M184.600 95.603 C 184.085 95.826,184.513 95.867,185.800 95.718 C 186.900 95.591,187.875 95.423,187.967 95.344 C 188.314 95.045,185.364 95.272,184.600 95.603 M180.000 96.418 C 179.562 96.715,179.724 96.752,180.600 96.556 C 182.071 96.227,182.390 95.998,181.367 96.006 C 180.945 96.009,180.330 96.195,180.000 96.418 M176.200 97.200 C 175.696 97.417,175.622 97.544,176.000 97.544 C 176.330 97.544,176.960 97.389,177.400 97.200 C 177.904 96.983,177.978 96.856,177.600 96.856 C 177.270 96.856,176.640 97.011,176.200 97.200 M173.000 98.000 C 172.496 98.217,172.422 98.344,172.800 98.344 C 173.130 98.344,173.760 98.189,174.200 98.000 C 174.704 97.783,174.778 97.656,174.400 97.656 C 174.070 97.656,173.440 97.811,173.000 98.000 M170.000 98.800 C 169.467 99.145,169.467 99.188,170.000 99.188 C 170.330 99.188,170.870 99.013,171.200 98.800 C 171.733 98.455,171.733 98.412,171.200 98.412 C 170.870 98.412,170.330 98.587,170.000 98.800 M103.792 104.100 L 99.800 108.200 103.900 104.208 C 106.155 102.012,108.000 100.167,108.000 100.108 C 108.000 99.818,107.501 100.292,103.792 104.100 M152.300 105.829 C 150.749 106.670,150.925 106.961,152.500 106.159 C 154.008 105.393,154.275 105.194,153.767 105.216 C 153.565 105.225,152.905 105.501,152.300 105.829 M95.270 113.300 C 93.744 115.115,92.565 116.675,92.648 116.767 C 92.732 116.858,92.854 116.858,92.920 116.767 C 92.987 116.675,94.252 115.115,95.732 113.300 C 97.212 111.485,98.337 110.000,98.233 110.000 C 98.128 110.000,96.795 111.485,95.270 113.300 M142.400 111.636 C 141.736 112.179,141.669 112.315,142.200 112.040 C 143.505 111.366,144.228 110.812,143.800 110.815 C 143.580 110.817,142.950 111.186,142.400 111.636 M134.800 117.234 L 133.000 118.865 134.900 117.384 C 136.566 116.086,137.059 115.597,136.700 115.601 C 136.645 115.602,135.790 116.336,134.800 117.234 M126.799 124.142 C 122.729 128.144,120.576 130.400,120.828 130.400 C 120.929 130.400,123.167 128.240,125.800 125.600 C 128.433 122.960,130.500 120.800,130.392 120.800 C 130.285 120.800,128.668 122.304,126.799 124.142 M81.814 132.635 C 81.441 133.204,81.205 133.738,81.289 133.822 C 81.373 133.907,81.758 133.441,82.144 132.788 C 83.006 131.328,82.748 131.209,81.814 132.635 M117.759 134.100 C 116.007 136.121,115.487 136.800,115.690 136.800 C 115.807 136.800,116.567 135.990,117.379 135.000 C 118.881 133.166,119.179 132.463,117.759 134.100 M111.414 142.635 C 111.041 143.204,110.805 143.738,110.889 143.822 C 110.973 143.907,111.358 143.441,111.744 142.788 C 112.606 141.328,112.348 141.209,111.414 142.635 M105.781 152.437 C 105.429 153.118,105.212 153.745,105.299 153.832 C 105.386 153.919,105.756 153.362,106.122 152.595 C 106.944 150.870,106.659 150.738,105.781 152.437 M68.229 166.229 C 68.081 166.815,68.038 167.372,68.132 167.466 C 68.227 167.560,68.424 167.158,68.571 166.571 C 68.719 165.985,68.762 165.428,68.668 165.334 C 68.573 165.240,68.376 165.642,68.229 166.229 M67.429 169.429 C 67.281 170.015,67.238 170.572,67.332 170.666 C 67.427 170.760,67.624 170.358,67.771 169.771 C 67.919 169.185,67.962 168.628,67.868 168.534 C 67.773 168.440,67.576 168.842,67.429 169.429 M98.600 170.400 C 98.450 170.873,98.417 171.350,98.527 171.460 C 98.637 171.570,98.850 171.273,99.000 170.800 C 99.150 170.327,99.183 169.850,99.073 169.740 C 98.963 169.630,98.750 169.927,98.600 170.400 M97.829 173.429 C 97.681 174.015,97.638 174.572,97.732 174.666 C 97.827 174.760,98.024 174.358,98.171 173.771 C 98.319 173.185,98.362 172.628,98.268 172.534 C 98.173 172.440,97.976 172.842,97.829 173.429 M66.493 174.400 C 66.493 175.170,66.575 175.485,66.676 175.100 C 66.776 174.715,66.776 174.085,66.676 173.700 C 66.575 173.315,66.493 173.630,66.493 174.400 M97.029 176.629 C 96.881 177.215,96.838 177.772,96.932 177.866 C 97.027 177.960,97.224 177.558,97.371 176.971 C 97.519 176.385,97.562 175.828,97.468 175.734 C 97.373 175.640,97.176 176.042,97.029 176.629 M65.693 179.200 C 65.693 179.970,65.775 180.285,65.876 179.900 C 65.976 179.515,65.976 178.885,65.876 178.500 C 65.775 178.115,65.693 178.430,65.693 179.200 M96.249 180.215 C 96.112 180.573,96.015 181.166,96.034 181.533 C 96.053 181.900,96.227 181.669,96.421 181.020 C 96.798 179.758,96.665 179.133,96.249 180.215 M64.920 185.200 C 64.920 186.410,64.995 186.905,65.087 186.300 C 65.178 185.695,65.178 184.705,65.087 184.100 C 64.995 183.495,64.920 183.990,64.920 185.200 M95.456 184.884 C 95.321 185.388,95.230 186.340,95.253 187.000 C 95.281 187.828,95.397 187.584,95.626 186.213 C 95.976 184.123,95.874 183.326,95.456 184.884 M64.493 188.800 C 64.493 189.570,64.575 189.885,64.676 189.500 C 64.776 189.115,64.776 188.485,64.676 188.100 C 64.575 187.715,64.493 188.030,64.493 188.800 M94.654 191.856 C 94.319 194.301,94.370 206.570,94.723 208.558 C 94.875 209.415,95.000 205.590,95.000 200.058 C 95.000 194.526,94.979 190.000,94.954 190.000 C 94.929 190.000,94.794 190.835,94.654 191.856 M64.167 200.000 C 64.167 204.290,64.226 206.045,64.298 203.900 C 64.370 201.755,64.370 198.245,64.298 196.100 C 64.226 193.955,64.167 195.710,64.167 200.000 M305.420 200.500 C 305.335 200.775,305.187 203.070,305.092 205.600 C 304.996 208.130,305.050 209.660,305.211 209.000 C 305.373 208.340,305.527 206.135,305.553 204.100 L 305.600 200.400 320.586 200.400 L 335.571 200.400 335.702 204.300 L 335.833 208.200 335.916 204.100 L 336.000 200.000 320.787 200.000 C 308.967 200.000,305.540 200.111,305.420 200.500 M64.493 211.200 C 64.493 211.970,64.575 212.285,64.676 211.900 C 64.776 211.515,64.776 210.885,64.676 210.500 C 64.575 210.115,64.493 210.430,64.493 211.200 M335.301 211.400 C 335.305 212.280,335.387 212.593,335.483 212.095 C 335.579 211.598,335.575 210.878,335.475 210.495 C 335.375 210.113,335.296 210.520,335.301 211.400 M95.228 213.233 C 95.244 213.985,95.412 214.960,95.603 215.400 C 95.826 215.915,95.867 215.487,95.718 214.200 C 95.444 211.822,95.189 211.319,95.228 213.233 M304.460 212.850 C 304.427 213.428,304.311 214.507,304.201 215.250 L 304.003 216.600 304.424 215.257 C 304.655 214.519,304.772 213.439,304.682 212.857 L 304.520 211.800 304.460 212.850 M64.920 214.800 C 64.920 216.010,64.995 216.505,65.087 215.900 C 65.178 215.295,65.178 214.305,65.087 213.700 C 64.995 213.095,64.920 213.590,64.920 214.800 M334.646 217.046 C 334.500 218.293,334.459 219.393,334.557 219.490 C 334.654 219.588,334.861 218.654,335.015 217.415 C 335.170 216.177,335.210 215.077,335.105 214.971 C 334.999 214.866,334.793 215.799,334.646 217.046 M96.006 218.633 C 96.009 219.055,96.195 219.670,96.418 220.000 C 96.715 220.438,96.752 220.276,96.556 219.400 C 96.227 217.929,95.998 217.610,96.006 218.633 M303.429 219.429 C 303.281 220.015,303.238 220.572,303.332 220.666 C 303.427 220.760,303.624 220.358,303.771 219.771 C 303.919 219.185,303.962 218.628,303.868 218.534 C 303.773 218.440,303.576 218.842,303.429 219.429 M65.640 220.833 C 65.662 221.585,65.830 222.650,66.013 223.200 C 66.229 223.846,66.266 223.420,66.119 222.000 C 65.859 219.483,65.581 218.807,65.640 220.833 M333.800 222.400 C 333.646 223.310,333.604 224.138,333.707 224.240 C 333.810 224.343,334.013 223.677,334.160 222.760 C 334.307 221.843,334.348 221.015,334.253 220.920 C 334.158 220.824,333.954 221.490,333.800 222.400 M96.834 222.600 C 96.822 223.040,96.987 223.670,97.200 224.000 C 97.714 224.795,97.714 223.796,97.200 222.600 L 96.856 221.800 96.834 222.600 M66.493 225.600 C 66.493 226.370,66.575 226.685,66.676 226.300 C 66.776 225.915,66.776 225.285,66.676 224.900 C 66.575 224.515,66.493 224.830,66.493 225.600 M97.656 225.600 C 97.656 225.930,97.811 226.560,98.000 227.000 C 98.217 227.504,98.344 227.578,98.344 227.200 C 98.344 226.870,98.189 226.240,98.000 225.800 C 97.783 225.296,97.656 225.222,97.656 225.600 M333.249 225.800 C 333.216 226.240,333.096 227.050,332.983 227.600 L 332.777 228.600 333.206 227.619 C 333.442 227.079,333.561 226.269,333.472 225.819 C 333.313 225.021,333.307 225.021,333.249 225.800 M301.829 226.629 C 301.681 227.215,301.638 227.772,301.732 227.866 C 301.827 227.960,302.024 227.558,302.171 226.971 C 302.319 226.385,302.362 225.828,302.268 225.734 C 302.173 225.640,301.976 226.042,301.829 226.629 M98.412 228.800 C 98.412 229.130,98.587 229.670,98.800 230.000 C 99.145 230.533,99.188 230.533,99.188 230.000 C 99.188 229.670,99.013 229.130,98.800 228.800 C 98.455 228.267,98.412 228.267,98.412 228.800 M67.206 229.833 C 67.209 230.255,67.395 230.870,67.618 231.200 C 67.915 231.638,67.952 231.476,67.756 230.600 C 67.427 229.129,67.198 228.810,67.206 229.833 M332.229 230.629 C 332.081 231.215,332.038 231.772,332.132 231.866 C 332.227 231.960,332.424 231.558,332.571 230.971 C 332.719 230.385,332.762 229.828,332.668 229.734 C 332.573 229.640,332.376 230.042,332.229 230.629 M68.056 232.800 C 68.056 233.130,68.211 233.760,68.400 234.200 C 68.617 234.704,68.744 234.778,68.744 234.400 C 68.744 234.070,68.589 233.440,68.400 233.000 C 68.183 232.496,68.056 232.422,68.056 232.800 M298.197 237.891 C 297.421 239.951,295.715 243.796,294.156 247.000 C 293.345 248.667,293.316 248.833,293.982 248.000 C 294.422 247.450,294.786 246.881,294.791 246.736 C 294.796 246.590,295.417 245.150,296.170 243.536 C 297.925 239.778,299.274 236.340,299.072 236.139 C 298.986 236.053,298.592 236.841,298.197 237.891 M105.200 246.153 C 105.200 246.582,106.390 248.800,106.621 248.800 C 106.731 248.800,106.523 248.215,106.159 247.500 C 105.417 246.040,105.200 245.736,105.200 246.153 M107.615 251.000 C 107.617 251.220,107.986 251.850,108.436 252.400 C 108.979 253.064,109.115 253.131,108.840 252.600 C 108.166 251.295,107.612 250.572,107.615 251.000 M289.786 254.900 L 289.152 256.200 289.967 255.200 C 290.752 254.237,291.008 253.600,290.610 253.600 C 290.506 253.600,290.135 254.185,289.786 254.900 M110.015 255.000 C 110.017 255.220,110.386 255.850,110.836 256.400 C 111.379 257.064,111.515 257.131,111.240 256.600 C 110.566 255.295,110.012 254.572,110.015 255.000 M320.456 262.500 C 319.067 265.195,318.104 267.220,318.317 267.000 C 319.153 266.133,323.478 257.600,323.081 257.600 C 323.026 257.600,321.845 259.805,320.456 262.500 M77.698 259.500 C 79.076 262.337,79.753 263.581,79.860 263.473 C 80.028 263.305,77.992 259.200,77.741 259.200 C 77.637 259.200,77.618 259.335,77.698 259.500 M284.225 263.100 C 282.976 264.805,282.482 265.603,283.128 264.874 C 284.528 263.292,286.923 260.000,286.673 260.000 C 286.576 260.000,285.475 261.395,284.225 263.100 M114.000 261.138 C 114.000 261.324,114.388 261.819,114.862 262.238 L 115.724 263.000 115.016 261.900 C 114.286 260.766,114.000 260.551,114.000 261.138 M116.575 264.532 C 117.191 265.339,117.776 266.000,117.875 266.000 C 118.153 266.000,116.421 263.660,115.909 263.344 C 115.659 263.189,115.959 263.724,116.575 264.532 M81.200 266.090 C 81.200 266.481,84.003 271.200,84.236 271.200 C 84.345 271.200,83.943 270.345,83.344 269.300 C 81.956 266.882,81.200 265.749,81.200 266.090 M119.200 267.800 C 119.946 268.570,120.629 269.200,120.718 269.200 C 121.054 269.200,118.582 266.456,118.222 266.429 C 118.013 266.413,118.454 267.030,119.200 267.800 M279.141 269.300 C 277.744 270.895,276.920 271.949,277.310 271.643 C 278.182 270.958,282.156 266.400,281.881 266.400 C 281.772 266.400,280.539 267.705,279.141 269.300 M317.000 268.800 C 316.659 269.460,316.469 270.000,316.579 270.000 C 316.689 270.000,317.059 269.460,317.400 268.800 C 317.741 268.140,317.931 267.600,317.821 267.600 C 317.711 267.600,317.341 268.140,317.000 268.800 M122.025 271.031 C 122.781 271.928,123.481 272.597,123.580 272.517 C 123.679 272.438,123.060 271.704,122.205 270.887 L 120.650 269.400 122.025 271.031 M312.655 275.600 C 311.631 277.140,310.878 278.400,310.982 278.400 C 311.085 278.400,311.866 277.365,312.715 276.100 C 314.598 273.299,314.895 272.800,314.682 272.800 C 314.592 272.800,313.680 274.060,312.655 275.600 M125.600 274.567 C 125.600 274.988,126.805 276.128,127.021 275.912 C 127.122 275.811,126.844 275.402,126.402 275.002 C 125.961 274.603,125.600 274.407,125.600 274.567 M127.238 276.500 C 127.332 276.555,128.127 277.230,129.004 278.000 L 130.600 279.400 129.222 277.900 C 128.463 277.075,127.668 276.400,127.455 276.400 C 127.241 276.400,127.144 276.445,127.238 276.500 M269.000 279.453 C 266.235 282.052,266.231 282.059,268.643 280.053 C 270.887 278.185,272.316 276.784,271.949 276.811 C 271.867 276.817,270.540 278.006,269.000 279.453 M131.887 280.409 C 132.595 281.151,133.242 281.678,133.325 281.579 C 133.408 281.481,132.829 280.873,132.038 280.229 L 130.600 279.058 131.887 280.409 M308.400 281.477 C 308.400 281.703,306.864 283.758,304.986 286.044 C 303.108 288.330,302.489 289.210,303.611 288.000 C 306.486 284.898,308.959 281.626,308.656 281.323 C 308.515 281.182,308.400 281.251,308.400 281.477 M263.200 284.050 C 259.990 286.523,259.156 287.378,261.674 285.615 C 263.704 284.192,266.323 282.028,266.000 282.040 C 265.890 282.043,264.630 282.948,263.200 284.050 M137.344 284.709 C 137.660 285.221,140.000 286.953,140.000 286.675 C 140.000 286.576,139.339 285.991,138.532 285.375 C 137.724 284.759,137.189 284.459,137.344 284.709 M96.000 287.600 C 97.144 288.920,98.169 290.000,98.279 290.000 C 98.389 290.000,97.544 288.920,96.400 287.600 C 95.256 286.280,94.231 285.200,94.121 285.200 C 94.011 285.200,94.856 286.280,96.000 287.600 M144.000 289.379 C 144.000 289.489,144.540 289.859,145.200 290.200 C 145.860 290.541,146.400 290.731,146.400 290.621 C 146.400 290.511,145.860 290.141,145.200 289.800 C 144.540 289.459,144.000 289.269,144.000 289.379 M254.700 289.829 C 254.095 290.157,253.600 290.510,253.600 290.613 C 253.600 290.999,254.232 290.757,255.200 290.000 C 256.389 289.070,256.211 289.009,254.700 289.829 M147.600 291.564 C 148.150 292.014,148.780 292.383,149.000 292.385 C 149.428 292.388,148.705 291.834,147.400 291.160 C 146.869 290.885,146.936 291.021,147.600 291.564 M103.800 296.000 C 105.992 298.200,107.875 300.000,107.985 300.000 C 108.095 300.000,106.392 298.200,104.200 296.000 C 102.008 293.800,100.125 292.000,100.015 292.000 C 99.905 292.000,101.608 293.800,103.800 296.000 M295.792 296.100 L 291.800 300.200 295.900 296.208 C 298.155 294.012,300.000 292.167,300.000 292.108 C 300.000 291.818,299.501 292.292,295.792 296.100 M151.200 293.396 C 151.200 293.670,153.649 294.884,153.832 294.701 C 153.919 294.614,153.362 294.244,152.595 293.878 C 151.828 293.512,151.200 293.295,151.200 293.396 M247.600 293.811 C 246.260 294.601,240.267 297.310,237.891 298.200 C 236.841 298.594,236.053 298.986,236.139 299.072 C 236.340 299.274,239.778 297.925,243.536 296.170 C 245.150 295.417,246.590 294.796,246.736 294.791 C 247.044 294.781,249.098 293.217,248.800 293.220 C 248.690 293.221,248.150 293.487,247.600 293.811 M156.000 295.765 C 156.000 296.032,159.867 297.804,161.200 298.147 L 162.200 298.404 161.200 297.926 C 160.650 297.664,159.390 297.093,158.400 296.658 C 157.410 296.223,156.465 295.797,156.300 295.710 C 156.135 295.624,156.000 295.648,156.000 295.765 M110.000 301.721 C 110.000 301.831,111.080 302.856,112.400 304.000 C 113.720 305.144,114.800 305.989,114.800 305.879 C 114.800 305.769,113.720 304.744,112.400 303.600 C 111.080 302.456,110.000 301.611,110.000 301.721 M172.600 302.000 C 173.040 302.189,173.670 302.344,174.000 302.344 C 174.378 302.344,174.304 302.217,173.800 302.000 C 173.360 301.811,172.730 301.656,172.400 301.656 C 172.022 301.656,172.096 301.783,172.600 302.000 M226.200 302.000 C 225.696 302.217,225.622 302.344,226.000 302.344 C 226.330 302.344,226.960 302.189,227.400 302.000 C 227.904 301.783,227.978 301.656,227.600 301.656 C 227.270 301.656,226.640 301.811,226.200 302.000 M287.800 303.444 C 286.700 304.439,284.747 306.051,283.460 307.026 C 282.174 308.002,281.288 308.800,281.492 308.800 C 281.905 308.800,289.360 302.713,289.780 302.032 C 290.222 301.317,289.893 301.552,287.800 303.444 M176.000 302.800 C 176.330 303.013,176.870 303.188,177.200 303.188 C 177.733 303.188,177.733 303.145,177.200 302.800 C 176.870 302.587,176.330 302.412,176.000 302.412 C 175.467 302.412,175.467 302.455,176.000 302.800 M179.800 303.600 C 180.240 303.789,180.870 303.944,181.200 303.944 C 181.578 303.944,181.504 303.817,181.000 303.600 C 180.560 303.411,179.930 303.256,179.600 303.256 C 179.222 303.256,179.296 303.383,179.800 303.600 M219.000 303.600 C 218.496 303.817,218.422 303.944,218.800 303.944 C 219.130 303.944,219.760 303.789,220.200 303.600 C 220.704 303.383,220.778 303.256,220.400 303.256 C 220.070 303.256,219.440 303.411,219.000 303.600 M184.400 304.387 C 185.391 304.717,188.287 304.935,187.967 304.654 C 187.875 304.574,186.810 304.406,185.600 304.281 C 184.180 304.134,183.754 304.171,184.400 304.387 M213.400 304.400 L 211.800 304.686 213.200 304.703 C 213.970 304.713,215.050 304.576,215.600 304.400 C 216.885 303.988,215.699 303.988,213.400 304.400 M191.442 305.277 C 193.365 305.619,207.361 305.599,208.977 305.253 C 209.625 305.114,205.594 305.000,200.019 305.000 C 194.444 305.000,190.585 305.125,191.442 305.277 M275.690 312.566 C 273.254 314.236,271.981 315.273,273.200 314.594 C 274.475 313.885,278.400 311.161,278.400 310.985 C 278.400 310.710,278.398 310.711,275.690 312.566 M124.269 312.832 C 124.766 313.433,127.200 314.964,127.200 314.676 C 127.200 314.583,126.435 314.002,125.500 313.385 C 124.565 312.768,124.011 312.520,124.269 312.832 M129.400 316.196 C 130.294 316.939,132.828 318.309,132.200 317.710 C 131.980 317.500,131.080 316.924,130.200 316.430 C 129.320 315.935,128.960 315.830,129.400 316.196 M268.700 317.029 C 267.205 317.840,267.296 318.178,268.800 317.400 C 269.460 317.059,270.000 316.694,270.000 316.590 C 270.000 316.332,269.957 316.347,268.700 317.029 M262.400 320.467 C 257.463 323.064,256.740 323.507,258.601 322.800 C 260.831 321.952,268.112 317.899,267.180 318.024 C 267.081 318.038,264.930 319.137,262.400 320.467 M134.600 319.121 C 135.171 319.698,138.066 321.267,138.239 321.094 C 138.319 321.014,137.443 320.447,136.292 319.833 C 135.142 319.219,134.380 318.899,134.600 319.121 M139.000 321.556 C 139.220 321.777,140.120 322.257,141.000 322.621 C 143.090 323.487,142.513 322.901,140.305 321.915 C 139.367 321.496,138.780 321.335,139.000 321.556 M165.600 331.600 C 165.930 331.813,166.470 331.988,166.800 331.988 C 167.333 331.988,167.333 331.945,166.800 331.600 C 166.470 331.387,165.930 331.212,165.600 331.212 C 165.067 331.212,165.067 331.255,165.600 331.600 M230.200 332.400 C 229.696 332.617,229.622 332.744,230.000 332.744 C 230.330 332.744,230.960 332.589,231.400 332.400 C 231.904 332.183,231.978 332.056,231.600 332.056 C 231.270 332.056,230.640 332.211,230.200 332.400 M172.200 333.181 C 172.968 333.529,175.110 333.756,174.767 333.453 C 174.675 333.372,173.880 333.196,173.000 333.062 C 171.885 332.893,171.642 332.929,172.200 333.181 M226.200 333.200 C 225.111 333.477,225.093 333.507,226.000 333.525 C 226.550 333.535,227.360 333.389,227.800 333.200 C 228.786 332.776,227.866 332.776,226.200 333.200 M176.600 334.000 C 178.292 334.431,179.744 334.431,178.400 334.000 C 177.850 333.824,176.950 333.683,176.400 333.687 C 175.502 333.694,175.522 333.726,176.600 334.000 M221.600 334.000 C 220.256 334.431,221.708 334.431,223.400 334.000 C 224.478 333.726,224.498 333.694,223.600 333.687 C 223.050 333.683,222.150 333.824,221.600 334.000 M181.600 334.787 C 182.591 335.117,185.487 335.335,185.167 335.054 C 185.075 334.974,184.010 334.806,182.800 334.681 C 181.380 334.534,180.954 334.571,181.600 334.787 M216.200 334.800 L 214.600 335.086 216.000 335.096 C 216.770 335.101,217.940 334.968,218.600 334.800 C 220.228 334.386,218.513 334.386,216.200 334.800 M188.100 335.476 C 188.485 335.576,189.115 335.576,189.500 335.476 C 189.885 335.375,189.570 335.293,188.800 335.293 C 188.030 335.293,187.715 335.375,188.100 335.476 M210.705 335.483 C 211.202 335.579,211.922 335.575,212.305 335.475 C 212.687 335.375,212.280 335.296,211.400 335.301 C 210.520 335.305,210.207 335.387,210.705 335.483 M195.900 335.898 C 198.155 335.970,201.845 335.970,204.100 335.898 C 206.355 335.827,204.510 335.769,200.000 335.769 C 195.490 335.769,193.645 335.827,195.900 335.898 " stroke="none" fill="#a4b4ec" fill-rule="evenodd"></path><path id="path5" d="M190.500 64.276 C 190.885 64.376,191.515 64.376,191.900 64.276 C 192.285 64.175,191.970 64.093,191.200 64.093 C 190.430 64.093,190.115 64.175,190.500 64.276 M193.305 95.087 C 193.914 95.179,194.814 95.177,195.305 95.082 C 195.797 94.987,195.300 94.911,194.200 94.914 C 193.100 94.917,192.697 94.995,193.305 95.087 M64.093 191.200 C 64.093 191.970,64.175 192.285,64.276 191.900 C 64.376 191.515,64.376 190.885,64.276 190.500 C 64.175 190.115,64.093 190.430,64.093 191.200 M94.914 194.200 C 94.917 195.300,94.995 195.703,95.087 195.095 C 95.179 194.486,95.177 193.586,95.082 193.095 C 94.987 192.603,94.911 193.100,94.914 194.200 M94.914 205.800 C 94.917 206.900,94.995 207.303,95.087 206.695 C 95.179 206.086,95.177 205.186,95.082 204.695 C 94.987 204.203,94.911 204.700,94.914 205.800 M304.909 206.000 C 304.909 206.990,304.987 207.395,305.082 206.900 C 305.178 206.405,305.178 205.595,305.082 205.100 C 304.987 204.605,304.909 205.010,304.909 206.000 M64.101 209.000 C 64.105 209.880,64.187 210.193,64.283 209.695 C 64.379 209.198,64.375 208.478,64.275 208.095 C 64.175 207.713,64.096 208.120,64.101 209.000 M335.693 209.200 C 335.693 209.970,335.775 210.285,335.876 209.900 C 335.976 209.515,335.976 208.885,335.876 208.500 C 335.775 208.115,335.693 208.430,335.693 209.200 M295.992 296.300 L 292.200 300.200 296.100 296.408 C 299.722 292.886,300.182 292.400,299.892 292.400 C 299.833 292.400,298.078 294.155,295.992 296.300 M193.100 305.082 C 193.595 305.178,194.405 305.178,194.900 305.082 C 195.395 304.987,194.990 304.909,194.000 304.909 C 193.010 304.909,192.605 304.987,193.100 305.082 M205.100 305.082 C 205.595 305.178,206.405 305.178,206.900 305.082 C 207.395 304.987,206.990 304.909,206.000 304.909 C 205.010 304.909,204.605 304.987,205.100 305.082 M190.100 335.876 C 190.485 335.976,191.115 335.976,191.500 335.876 C 191.885 335.775,191.570 335.693,190.800 335.693 C 190.030 335.693,189.715 335.775,190.100 335.876 M208.500 335.876 C 208.885 335.976,209.515 335.976,209.900 335.876 C 210.285 335.775,209.970 335.693,209.200 335.693 C 208.430 335.693,208.115 335.775,208.500 335.876 " stroke="none" fill="#b4bcec" fill-rule="evenodd"></path><path id="path6" d="M190.100 95.476 C 190.485 95.576,191.115 95.576,191.500 95.476 C 191.885 95.375,191.570 95.293,190.800 95.293 C 190.030 95.293,189.715 95.375,190.100 95.476 M95.293 190.800 C 95.293 191.570,95.375 191.885,95.476 191.500 C 95.576 191.115,95.576 190.485,95.476 190.100 C 95.375 189.715,95.293 190.030,95.293 190.800 M95.293 209.200 C 95.293 209.970,95.375 210.285,95.476 209.900 C 95.576 209.515,95.576 208.885,95.476 208.500 C 95.375 208.115,95.293 208.430,95.293 209.200 M121.200 269.725 C 121.200 269.794,121.785 270.379,122.500 271.025 L 123.800 272.200 122.625 270.900 C 121.530 269.688,121.200 269.416,121.200 269.725 " stroke="none" fill="#c6cef4" fill-rule="evenodd"></path><path id="path7" d="M186.705 64.283 C 187.202 64.379,187.922 64.375,188.305 64.275 C 188.687 64.175,188.280 64.096,187.400 64.101 C 186.520 64.105,186.207 64.187,186.705 64.283 M200.182 79.200 C 200.182 87.670,200.235 91.135,200.299 86.900 C 200.364 82.665,200.364 75.735,200.299 71.500 C 200.235 67.265,200.182 70.730,200.182 79.200 M183.700 64.676 C 184.085 64.776,184.715 64.776,185.100 64.676 C 185.485 64.575,185.170 64.493,184.400 64.493 C 183.630 64.493,183.315 64.575,183.700 64.676 M130.300 82.629 C 128.805 83.440,128.896 83.778,130.400 83.000 C 131.060 82.659,131.600 82.294,131.600 82.190 C 131.600 81.932,131.557 81.947,130.300 82.629 M123.407 87.022 C 122.311 87.780,121.559 88.400,121.735 88.400 C 122.118 88.400,125.600 86.040,125.600 85.781 C 125.600 85.511,125.559 85.534,123.407 87.022 M194.200 95.200 L 191.800 95.466 193.800 95.493 C 194.900 95.508,196.790 95.384,198.000 95.217 C 200.972 94.806,197.886 94.792,194.200 95.200 M184.500 96.276 C 184.885 96.376,185.515 96.376,185.900 96.276 C 186.285 96.175,185.970 96.093,185.200 96.093 C 184.430 96.093,184.115 96.175,184.500 96.276 M108.778 98.700 L 107.400 100.200 108.900 98.822 C 109.725 98.063,110.400 97.388,110.400 97.322 C 110.400 97.016,110.062 97.304,108.778 98.700 M176.800 97.600 C 175.976 97.864,175.941 97.926,176.600 97.954 C 177.040 97.973,177.670 97.813,178.000 97.600 C 178.701 97.147,178.214 97.147,176.800 97.600 M170.400 99.200 C 169.576 99.464,169.541 99.526,170.200 99.554 C 170.640 99.573,171.270 99.413,171.600 99.200 C 172.301 98.747,171.814 98.747,170.400 99.200 M103.385 103.700 L 101.400 105.800 103.500 103.815 C 104.655 102.723,105.600 101.778,105.600 101.715 C 105.600 101.417,105.229 101.749,103.385 103.700 M98.378 109.100 L 97.000 110.600 98.500 109.222 C 99.896 107.938,100.184 107.600,99.878 107.600 C 99.812 107.600,99.137 108.275,98.378 109.100 M129.375 122.500 L 128.200 123.800 129.500 122.625 C 130.712 121.530,130.984 121.200,130.675 121.200 C 130.606 121.200,130.021 121.785,129.375 122.500 M86.896 123.632 C 86.180 124.715,85.677 125.600,85.778 125.600 C 86.050 125.600,88.500 121.967,88.338 121.804 C 88.261 121.727,87.612 122.550,86.896 123.632 M122.175 129.700 L 121.000 131.000 122.300 129.825 C 123.512 128.730,123.784 128.400,123.475 128.400 C 123.406 128.400,122.821 128.985,122.175 129.700 M82.600 130.400 C 82.259 131.060,82.069 131.600,82.179 131.600 C 82.289 131.600,82.659 131.060,83.000 130.400 C 83.341 129.740,83.531 129.200,83.421 129.200 C 83.311 129.200,82.941 129.740,82.600 130.400 M99.246 170.067 C 99.221 170.434,99.096 171.064,98.970 171.467 C 98.752 172.162,98.763 172.163,99.197 171.487 C 99.448 171.096,99.573 170.466,99.473 170.087 C 99.311 169.468,99.288 169.466,99.246 170.067 M97.646 176.467 C 97.621 176.834,97.496 177.464,97.370 177.867 C 97.152 178.562,97.163 178.563,97.597 177.887 C 97.848 177.496,97.973 176.866,97.873 176.487 C 97.711 175.868,97.688 175.866,97.646 176.467 M64.493 184.400 C 64.493 185.170,64.575 185.485,64.676 185.100 C 64.776 184.715,64.776 184.085,64.676 183.700 C 64.575 183.315,64.493 183.630,64.493 184.400 M96.093 185.200 C 96.093 185.970,96.175 186.285,96.276 185.900 C 96.376 185.515,96.376 184.885,96.276 184.500 C 96.175 184.115,96.093 184.430,96.093 185.200 M64.101 187.400 C 64.105 188.280,64.187 188.593,64.283 188.095 C 64.379 187.598,64.375 186.878,64.275 186.495 C 64.175 186.113,64.096 186.520,64.101 187.400 M94.998 196.500 C 94.843 198.976,94.870 202.621,95.058 204.600 C 95.357 207.745,95.402 207.176,95.413 200.100 C 95.429 190.755,95.382 190.349,94.998 196.500 M313.126 199.900 C 317.376 199.964,324.216 199.964,328.326 199.899 C 332.437 199.834,328.960 199.781,320.600 199.781 C 312.240 199.782,308.877 199.835,313.126 199.900 M304.599 204.074 C 304.445 206.343,304.387 208.650,304.471 209.200 C 304.556 209.750,304.761 207.971,304.927 205.248 C 305.093 202.524,305.150 200.217,305.055 200.121 C 304.959 200.026,304.754 201.804,304.599 204.074 M336.148 204.000 C 336.148 206.310,336.214 207.255,336.295 206.100 C 336.376 204.945,336.376 203.055,336.295 201.900 C 336.214 200.745,336.148 201.690,336.148 204.000 M64.101 212.600 C 64.105 213.480,64.187 213.793,64.283 213.295 C 64.379 212.798,64.375 212.078,64.275 211.695 C 64.175 211.313,64.096 211.720,64.101 212.600 M96.093 214.800 C 96.093 215.570,96.175 215.885,96.276 215.500 C 96.376 215.115,96.376 214.485,96.276 214.100 C 96.175 213.715,96.093 214.030,96.093 214.800 M303.701 215.400 C 303.705 216.280,303.787 216.593,303.883 216.095 C 303.979 215.598,303.975 214.878,303.875 214.495 C 303.775 214.113,303.696 214.520,303.701 215.400 M64.493 215.600 C 64.493 216.370,64.575 216.685,64.676 216.300 C 64.776 215.915,64.776 215.285,64.676 214.900 C 64.575 214.515,64.493 214.830,64.493 215.600 M335.309 216.400 C 335.309 217.390,335.387 217.795,335.482 217.300 C 335.578 216.805,335.578 215.995,335.482 215.500 C 335.387 215.005,335.309 215.410,335.309 216.400 M334.493 222.000 C 334.493 222.770,334.575 223.085,334.676 222.700 C 334.776 222.315,334.776 221.685,334.676 221.300 C 334.575 220.915,334.493 221.230,334.493 222.000 M97.444 222.600 C 97.773 224.071,98.002 224.390,97.994 223.367 C 97.991 222.945,97.805 222.330,97.582 222.000 C 97.285 221.562,97.248 221.724,97.444 222.600 M98.244 226.200 C 98.573 227.671,98.802 227.990,98.794 226.967 C 98.791 226.545,98.605 225.930,98.382 225.600 C 98.085 225.162,98.048 225.324,98.244 226.200 M301.246 226.867 C 301.221 227.234,301.096 227.864,300.970 228.267 C 300.752 228.962,300.763 228.963,301.197 228.287 C 301.448 227.896,301.573 227.266,301.473 226.887 C 301.311 226.268,301.288 226.266,301.246 226.867 M99.044 229.000 C 99.373 230.471,99.602 230.790,99.594 229.767 C 99.591 229.345,99.405 228.730,99.182 228.400 C 98.885 227.962,98.848 228.124,99.044 229.000 M331.246 236.467 C 331.221 236.834,331.096 237.464,330.970 237.867 C 330.752 238.562,330.763 238.563,331.197 237.887 C 331.448 237.496,331.573 236.866,331.473 236.487 C 331.311 235.868,331.288 235.866,331.246 236.467 M283.570 263.100 C 282.621 264.365,282.113 265.183,282.441 264.918 C 283.115 264.375,285.746 260.800,285.473 260.800 C 285.376 260.800,284.519 261.835,283.570 263.100 M117.951 265.538 C 118.621 266.385,119.487 267.330,119.874 267.638 C 120.261 267.947,119.790 267.255,118.826 266.100 C 116.806 263.678,116.138 263.249,117.951 265.538 M81.560 267.800 C 82.234 269.105,82.788 269.828,82.785 269.400 C 82.783 269.180,82.414 268.550,81.964 268.000 C 81.421 267.336,81.285 267.269,81.560 267.800 M83.949 271.800 C 84.165 272.240,84.634 272.960,84.993 273.400 L 85.644 274.200 85.251 273.400 C 85.035 272.960,84.566 272.240,84.207 271.800 L 83.556 271.000 83.949 271.800 M274.000 274.200 C 272.361 275.850,271.110 277.200,271.220 277.200 C 271.330 277.200,272.761 275.850,274.400 274.200 C 276.039 272.550,277.290 271.200,277.180 271.200 C 277.070 271.200,275.639 272.550,274.000 274.200 M124.800 273.400 C 125.546 274.170,126.247 274.800,126.357 274.800 C 126.467 274.800,125.946 274.170,125.200 273.400 C 124.454 272.630,123.753 272.000,123.643 272.000 C 123.533 272.000,124.054 272.630,124.800 273.400 M129.200 277.325 C 129.200 277.394,129.785 277.979,130.500 278.625 L 131.800 279.800 130.625 278.500 C 129.530 277.288,129.200 277.016,129.200 277.325 M263.200 283.449 C 260.634 285.456,260.264 285.963,262.518 284.383 C 264.200 283.204,265.585 281.960,265.149 282.021 C 265.067 282.032,264.190 282.675,263.200 283.449 M302.300 289.817 C 301.695 290.528,301.200 291.226,301.200 291.369 C 301.200 291.511,301.764 290.986,302.453 290.200 C 303.143 289.415,303.638 288.717,303.553 288.649 C 303.469 288.580,302.905 289.106,302.300 289.817 M98.200 290.800 C 99.059 291.680,99.852 292.400,99.962 292.400 C 100.072 292.400,99.459 291.680,98.600 290.800 C 97.741 289.920,96.948 289.200,96.838 289.200 C 96.728 289.200,97.341 289.920,98.200 290.800 M296.192 296.500 L 292.200 300.600 296.300 296.608 C 298.555 294.412,300.400 292.567,300.400 292.508 C 300.400 292.218,299.901 292.692,296.192 296.500 M104.200 297.200 C 105.728 298.740,107.069 300.000,107.179 300.000 C 107.289 300.000,106.128 298.740,104.600 297.200 C 103.072 295.660,101.731 294.400,101.621 294.400 C 101.511 294.400,102.672 295.660,104.200 297.200 M109.200 301.800 C 109.946 302.570,110.647 303.200,110.757 303.200 C 110.867 303.200,110.346 302.570,109.600 301.800 C 108.854 301.030,108.153 300.400,108.043 300.400 C 107.933 300.400,108.454 301.030,109.200 301.800 M227.200 301.200 C 226.376 301.464,226.341 301.526,227.000 301.554 C 227.440 301.573,228.070 301.413,228.400 301.200 C 229.101 300.747,228.614 300.747,227.200 301.200 M289.694 302.412 C 287.983 303.968,288.488 303.957,290.261 302.400 C 291.013 301.740,291.487 301.205,291.314 301.212 C 291.141 301.218,290.412 301.758,289.694 302.412 M179.233 302.947 C 179.325 303.028,180.120 303.204,181.000 303.338 C 182.115 303.507,182.358 303.471,181.800 303.219 C 181.032 302.871,178.890 302.644,179.233 302.947 M183.905 303.883 C 184.402 303.979,185.122 303.975,185.505 303.875 C 185.887 303.775,185.480 303.696,184.600 303.701 C 183.720 303.705,183.407 303.787,183.905 303.883 M214.705 303.883 C 215.202 303.979,215.922 303.975,216.305 303.875 C 216.687 303.775,216.280 303.696,215.400 303.701 C 214.520 303.705,214.207 303.787,214.705 303.883 M194.900 304.926 C 197.705 305.108,202.295 305.108,205.100 304.926 C 209.704 304.629,209.208 304.597,200.000 304.597 C 190.792 304.597,190.296 304.629,194.900 304.926 M236.800 331.200 C 235.976 331.464,235.941 331.526,236.600 331.554 C 237.040 331.573,237.670 331.413,238.000 331.200 C 238.701 330.747,238.214 330.747,236.800 331.200 M177.300 334.676 C 177.685 334.776,178.315 334.776,178.700 334.676 C 179.085 334.575,178.770 334.493,178.000 334.493 C 177.230 334.493,176.915 334.575,177.300 334.676 M221.300 334.676 C 221.685 334.776,222.315 334.776,222.700 334.676 C 223.085 334.575,222.770 334.493,222.000 334.493 C 221.230 334.493,220.915 334.575,221.300 334.676 M182.700 335.482 C 183.195 335.578,184.005 335.578,184.500 335.482 C 184.995 335.387,184.590 335.309,183.600 335.309 C 182.610 335.309,182.205 335.387,182.700 335.482 M215.500 335.482 C 215.995 335.578,216.805 335.578,217.300 335.482 C 217.795 335.387,217.390 335.309,216.400 335.309 C 215.410 335.309,215.005 335.387,215.500 335.482 M195.900 336.298 C 198.155 336.370,201.845 336.370,204.100 336.298 C 206.355 336.227,204.510 336.169,200.000 336.169 C 195.490 336.169,193.645 336.227,195.900 336.298 " stroke="none" fill="#d4dcf4" fill-rule="evenodd"></path><path id="path8" d="M282.558 94.100 C 281.898 94.815,281.114 95.760,280.816 96.200 C 280.517 96.640,281.045 96.135,281.988 95.077 C 283.034 93.903,283.924 93.239,284.272 93.372 C 284.588 93.493,284.733 93.415,284.597 93.195 C 284.203 92.557,283.828 92.723,282.558 94.100 M295.484 102.259 C 296.758 103.281,298.115 104.389,298.500 104.721 C 298.885 105.052,299.200 105.227,299.200 105.107 C 299.200 104.821,293.790 100.400,293.440 100.400 C 293.291 100.400,294.211 101.236,295.484 102.259 M272.986 105.778 C 272.774 106.075,272.183 106.876,271.673 107.559 C 271.163 108.241,270.833 108.800,270.939 108.800 C 271.253 108.800,273.712 105.579,273.534 105.401 C 273.445 105.311,273.198 105.481,272.986 105.778 M304.300 125.414 C 303.301 126.750,303.431 127.123,304.446 125.833 C 304.911 125.242,305.226 124.695,305.146 124.618 C 305.066 124.541,304.685 124.900,304.300 125.414 M300.645 129.979 C 299.410 131.507,298.400 132.871,298.400 133.009 C 298.400 133.148,298.814 132.753,299.321 132.131 C 302.295 128.479,303.274 127.200,303.093 127.200 C 302.982 127.200,301.880 128.450,300.645 129.979 M249.008 135.900 C 248.149 136.945,247.860 137.440,248.366 137.000 C 249.261 136.222,250.998 134.000,250.712 134.000 C 250.634 134.000,249.867 134.855,249.008 135.900 M240.434 146.553 L 239.469 147.800 240.613 146.712 C 241.243 146.114,241.677 145.553,241.579 145.465 C 241.480 145.377,240.965 145.867,240.434 146.553 M236.968 150.900 C 235.691 152.495,234.029 154.565,233.275 155.500 C 232.521 156.435,231.995 157.200,232.107 157.200 C 232.218 157.200,233.355 155.895,234.632 154.300 C 235.909 152.705,237.571 150.635,238.325 149.700 C 239.079 148.765,239.605 148.000,239.493 148.000 C 239.382 148.000,238.245 149.305,236.968 150.900 M230.087 159.416 C 228.390 161.723,228.683 161.714,230.579 159.400 C 231.390 158.410,231.907 157.607,231.727 157.616 C 231.547 157.624,230.809 158.434,230.087 159.416 M157.775 167.700 L 156.600 169.000 157.900 167.825 C 159.112 166.730,159.384 166.400,159.075 166.400 C 159.006 166.400,158.421 166.985,157.775 167.700 M155.555 170.300 C 154.210 171.787,153.460 172.800,153.703 172.800 C 153.813 172.800,154.567 171.990,155.379 171.000 C 157.006 169.014,157.117 168.572,155.555 170.300 M162.800 169.333 C 162.800 169.426,163.790 170.349,165.000 171.382 C 166.210 172.416,167.190 173.113,167.178 172.931 C 167.155 172.597,162.800 169.017,162.800 169.333 M219.432 172.713 L 218.664 173.800 219.732 172.830 C 220.854 171.811,220.993 171.592,220.500 171.613 C 220.335 171.619,219.854 172.114,219.432 172.713 M265.601 173.798 C 265.086 174.348,264.739 174.864,264.832 174.946 C 264.924 175.028,265.419 174.578,265.930 173.947 C 267.076 172.535,266.874 172.444,265.601 173.798 M151.300 175.393 C 150.365 176.546,149.600 177.612,149.600 177.761 C 149.600 177.909,150.425 177.019,151.432 175.781 C 152.440 174.544,153.205 173.479,153.132 173.414 C 153.060 173.349,152.235 174.240,151.300 175.393 M262.867 177.177 C 262.170 178.044,261.600 178.867,261.600 179.007 C 261.600 179.236,262.433 178.280,263.958 176.300 C 265.052 174.882,264.092 175.652,262.867 177.177 M173.622 178.270 C 173.634 178.451,174.174 179.019,174.822 179.530 C 175.470 180.042,175.990 180.312,175.978 180.130 C 175.966 179.949,175.426 179.381,174.778 178.870 C 174.130 178.358,173.610 178.088,173.622 178.270 M144.575 183.700 L 143.400 185.000 144.700 183.825 C 145.912 182.730,146.184 182.400,145.875 182.400 C 145.806 182.400,145.221 182.985,144.575 183.700 M178.800 182.488 C 178.800 182.566,179.655 183.333,180.700 184.192 C 181.745 185.051,182.240 185.340,181.800 184.834 C 181.022 183.939,178.800 182.202,178.800 182.488 M256.575 185.068 C 255.959 185.876,255.659 186.411,255.909 186.256 C 256.421 185.940,258.153 183.600,257.875 183.600 C 257.776 183.600,257.191 184.261,256.575 185.068 M182.800 185.733 C 182.800 185.826,183.790 186.749,185.000 187.782 C 186.210 188.816,187.190 189.513,187.178 189.331 C 187.155 188.997,182.800 185.417,182.800 185.733 M251.561 191.297 C 246.751 197.302,245.248 199.309,246.867 197.564 C 248.952 195.318,255.006 187.600,254.684 187.600 C 254.595 187.600,253.190 189.264,251.561 191.297 M137.500 192.214 C 136.501 193.550,136.631 193.923,137.646 192.633 C 138.111 192.042,138.426 191.495,138.346 191.418 C 138.266 191.341,137.885 191.700,137.500 192.214 M202.385 194.018 C 201.680 194.909,201.170 195.699,201.252 195.774 C 201.333 195.850,201.991 195.122,202.713 194.156 C 204.362 191.950,204.108 191.843,202.385 194.018 M191.600 193.100 C 191.600 193.269,191.960 193.632,192.400 193.907 C 192.840 194.182,193.200 194.269,193.200 194.100 C 193.200 193.931,192.840 193.568,192.400 193.293 C 191.960 193.018,191.600 192.931,191.600 193.100 M137.800 196.363 C 138.626 197.317,140.800 198.992,140.800 198.675 C 140.800 198.577,139.945 197.809,138.900 196.968 C 137.855 196.128,137.360 195.855,137.800 196.363 M195.400 196.257 C 197.437 198.064,198.187 198.591,197.402 197.663 C 196.966 197.148,196.247 196.541,195.804 196.314 C 195.362 196.087,195.180 196.062,195.400 196.257 M199.463 197.600 C 198.875 198.260,198.563 198.800,198.770 198.800 C 198.976 198.800,199.530 198.260,200.000 197.600 C 200.470 196.940,200.782 196.400,200.693 196.400 C 200.605 196.400,200.051 196.940,199.463 197.600 M143.260 200.991 C 144.437 201.977,145.542 202.787,145.716 202.791 C 145.889 202.796,145.037 201.990,143.821 201.000 C 142.606 200.010,141.501 199.200,141.366 199.200 C 141.231 199.200,142.083 200.006,143.260 200.991 M150.400 206.636 C 150.400 206.911,150.824 207.284,152.900 208.833 C 154.614 210.113,154.194 209.531,152.200 207.865 C 151.210 207.037,150.400 206.484,150.400 206.636 M155.324 210.677 C 155.660 211.221,158.800 213.755,158.800 213.482 C 158.800 213.380,157.953 212.603,156.919 211.755 C 155.884 210.907,155.166 210.422,155.324 210.677 M232.293 215.400 C 230.601 217.490,229.347 219.192,229.508 219.182 C 229.889 219.158,235.870 211.600,235.508 211.600 C 235.432 211.600,233.986 213.310,232.293 215.400 M160.269 214.909 C 162.387 216.613,163.005 216.921,161.400 215.473 C 160.520 214.680,159.651 214.023,159.469 214.015 C 159.287 214.007,159.647 214.409,160.269 214.909 M164.686 218.478 C 167.401 220.771,167.879 221.039,165.819 219.113 C 164.708 218.075,163.659 217.220,163.486 217.213 C 163.313 217.206,163.853 217.775,164.686 218.478 M172.422 224.670 C 172.434 224.851,172.974 225.419,173.622 225.930 C 174.270 226.442,174.790 226.712,174.778 226.530 C 174.766 226.349,174.226 225.781,173.578 225.270 C 172.930 224.758,172.410 224.488,172.422 224.670 M178.269 229.709 C 180.360 231.391,181.014 231.705,179.400 230.252 C 178.520 229.460,177.651 228.809,177.469 228.806 C 177.287 228.803,177.647 229.209,178.269 229.709 M220.332 230.300 C 218.516 232.449,216.657 234.921,217.021 234.702 C 217.502 234.414,221.340 229.600,221.089 229.600 C 220.998 229.600,220.658 229.915,220.332 230.300 M182.469 233.073 C 183.201 233.663,184.261 234.518,184.824 234.973 C 185.388 235.428,184.938 234.947,183.824 233.904 C 182.711 232.862,181.651 232.007,181.469 232.004 C 181.287 232.002,181.737 232.483,182.469 233.073 M215.601 236.198 C 215.086 236.748,214.739 237.264,214.832 237.346 C 214.924 237.428,215.419 236.978,215.930 236.347 C 217.076 234.935,216.874 234.844,215.601 236.198 M186.524 236.277 C 186.860 236.821,190.000 239.355,190.000 239.082 C 190.000 238.980,189.153 238.203,188.119 237.355 C 187.084 236.507,186.366 236.022,186.524 236.277 M197.790 242.784 C 197.932 243.013,198.517 243.200,199.090 243.200 C 200.344 243.200,200.199 243.008,198.666 242.640 C 197.923 242.462,197.621 242.511,197.790 242.784 M203.600 242.800 L 202.200 243.095 203.676 243.147 C 204.488 243.176,205.264 243.020,205.400 242.800 C 205.668 242.366,205.661 242.366,203.600 242.800 " stroke="none" fill="#fcf0c4" fill-rule="evenodd"></path></g></svg>