<?xml version="1.0" standalone="no"?>
<!DOCTYPE svg PUBLIC "-//W3C//DTD SVG 20010904//EN"
 "http://www.w3.org/TR/2001/REC-SVG-20010904/DTD/svg10.dtd">
<svg version="1.0" xmlns="http://www.w3.org/2000/svg"
 width="250.000000pt" height="250.000000pt" viewBox="0 0 250.000000 250.000000"
 preserveAspectRatio="xMidYMid meet">

<g transform="translate(0.000000,250.000000) scale(0.100000,-0.100000)"
fill="#000000" stroke="none">
<path d="M0 1250 l0 -1250 1250 0 1250 0 0 1250 0 1250 -1250 0 -1250 0 0
-1250z m1495 1008 c3 -18 21 -157 40 -308 19 -151 70 -557 115 -901 44 -345
80 -639 80 -653 0 -14 -4 -26 -9 -26 -5 0 -73 -9 -151 -21 -78 -11 -144 -19
-146 -16 -2 2 -29 197 -59 433 -30 236 -61 476 -69 534 -43 316 -119 940 -115
945 6 6 233 42 276 44 29 1 33 -2 38 -31z m-955 -316 c0 -67 -3 -83 -12 -74
-8 8 -48 12 -113 12 -65 0 -105 -4 -113 -12 -9 -9 -12 7 -12 75 0 91 2 95 44
78 19 -7 19 -8 -2 -13 -18 -5 -22 -13 -22 -47 l0 -41 45 0 c43 0 45 1 45 28 0
15 -5 33 -12 40 -9 9 -3 12 28 12 34 -1 37 -2 22 -14 -10 -7 -18 -25 -18 -40
0 -25 3 -26 50 -26 l50 0 0 44 c0 36 -4 46 -20 51 -31 10 -24 22 10 17 l30 -4
0 -86z m613 23 c70 -18 8 -25 -213 -25 -215 0 -253 4 -235 22 8 8 418 10 448
3z m-613 -165 c0 -25 -9 -35 -57 -67 -31 -21 -58 -44 -61 -50 -5 -17 89 -18
106 -1 9 9 12 2 12 -32 0 -34 -3 -41 -12 -32 -17 17 -224 17 -231 0 -3 -7 -6
20 -6 60 -1 59 2 75 19 92 27 27 56 25 87 -6 l26 -26 34 19 c19 10 45 30 57
45 11 15 22 27 24 27 1 1 2 -12 2 -29z m1575 -121 c4 -11 67 -322 140 -692
106 -535 131 -675 121 -685 -19 -20 -484 -101 -501 -88 -9 7 -61 250 -145 676
-72 366 -133 674 -136 685 -2 11 0 26 4 33 8 11 189 49 196 41 1 -2 14 -78 29
-169 62 -378 91 -530 101 -527 6 2 21 18 32 35 l22 31 28 -24 c37 -32 45 -31
39 3 -8 45 -55 327 -81 487 -13 83 -29 158 -35 168 -6 11 -9 20 -7 22 7 7 163
31 175 27 7 -2 15 -13 18 -23z m-1620 -125 c27 -11 45 -60 45 -126 -1 -48 -3
-59 -11 -45 -8 14 -25 17 -114 17 -89 0 -106 -3 -114 -17 -8 -14 -10 0 -11 55
0 59 4 76 20 92 25 25 41 25 71 1 23 -18 23 -18 42 5 18 24 41 29 72 18z m351
-98 c3 -8 22 -17 42 -21 20 -3 45 -8 54 -11 14 -4 16 -1 11 13 -6 16 -5 16 10
4 20 -16 22 -38 5 -43 -33 -11 -148 39 -148 64 0 13 20 9 26 -6z m133 -81 c9
-5 9 -10 1 -20 -8 -9 -8 -15 0 -20 20 -13 9 -25 -23 -25 -42 0 -65 17 -71 52
-4 27 -3 27 39 24 23 -2 48 -7 54 -11z m-564 -85 c89 0 106 3 114 18 8 13 10
6 10 -33 0 -39 -2 -46 -10 -32 -8 14 -25 17 -114 17 -89 0 -106 -3 -114 -17
-8 -14 -10 -7 -10 32 0 39 2 46 10 33 8 -15 25 -18 114 -18z m560 -5 c52 -15
65 -27 65 -62 0 -32 -18 -29 -22 3 -2 17 -11 30 -25 35 -20 7 -21 6 -13 -17 9
-24 8 -24 -35 -22 -29 1 -46 6 -50 16 -8 21 -3 23 34 12 24 -7 31 -6 28 3 -2
6 -18 16 -35 21 -35 10 -43 26 -14 26 11 0 41 -7 67 -15z m-5 -95 c11 -11 20
-29 20 -40 0 -16 -7 -20 -32 -20 -48 0 -87 47 -61 73 13 14 54 6 73 -13z
m-430 -92 c-1 -68 -3 -88 -11 -75 -8 14 -25 17 -114 17 -89 0 -106 -3 -114
-17 -8 -14 -10 -7 -10 32 0 39 2 46 10 33 8 -15 26 -18 114 -18 l105 0 0 48
c0 41 -4 51 -22 60 -22 10 -21 11 10 11 l32 1 0 -92z m350 12 c0 -5 -4 -10
-10 -10 -5 0 -10 -9 -10 -19 0 -25 37 -51 72 -51 23 0 28 4 28 25 0 16 -6 25
-15 25 -8 0 -15 -4 -15 -10 0 -5 -4 -10 -10 -10 -5 0 -10 14 -10 30 0 27 2 30
19 20 11 -5 28 -10 38 -10 26 -1 63 -35 63 -59 0 -28 -18 -27 -22 1 -5 35 -28
34 -28 -1 0 -37 -12 -45 -53 -37 -48 10 -77 37 -84 79 -5 33 -3 37 16 37 11 0
21 -4 21 -10z m-350 -177 c0 -32 -3 -43 -9 -34 -7 11 -17 12 -43 5 -31 -9 -33
-13 -36 -57 -3 -45 -2 -48 30 -61 23 -10 37 -11 46 -4 9 8 12 2 12 -28 0 -35
-1 -36 -14 -19 -8 11 -62 40 -122 65 -59 26 -109 51 -111 56 -2 5 49 29 113
53 64 24 118 50 121 58 9 24 13 14 13 -34z m367 -4 c55 -13 63 -11 56 9 -5 13
-3 14 6 6 17 -16 33 -88 21 -92 -6 -2 -6 -11 0 -22 13 -24 0 -33 -35 -24 -31
8 -34 -12 -3 -22 27 -8 47 -32 48 -56 0 -20 -22 -23 -51 -8 -30 17 -22 1 17
-34 42 -38 43 -69 3 -74 -19 -2 -33 5 -48 24 -27 34 -26 42 2 54 17 7 18 9 5
9 -13 1 -18 9 -18 31 0 17 5 30 10 30 6 0 10 -4 10 -9 0 -12 39 -25 48 -17 9
10 -31 35 -55 36 -25 0 -39 15 -23 25 6 4 8 15 5 26 -7 22 -9 22 33 10 25 -8
32 -7 32 5 0 8 -7 14 -15 14 -9 0 -32 15 -51 33 -19 17 -41 38 -49 45 -8 7
-15 20 -15 30 1 15 2 15 15 -1 7 -10 31 -23 52 -28z m-27 -94 c0 -8 -4 -15 -9
-15 -13 0 -22 16 -14 24 11 11 23 6 23 -9z m-341 -213 c1 -57 -20 -96 -65
-117 -95 -45 -184 23 -184 140 0 44 1 45 33 45 l32 -1 -27 -15 c-46 -24 -33
-101 21 -129 50 -25 108 -20 142 14 29 29 32 41 30 111 0 29 1 31 8 15 5 -11
10 -39 10 -63z m491 4 c0 -31 -21 -53 -62 -61 l-32 -7 25 -13 c13 -7 27 -11
31 -9 5 3 7 -12 7 -33 -1 -25 -3 -30 -6 -15 -3 15 -17 29 -38 38 -46 19 -76
18 -69 -1 4 -8 14 -15 24 -15 11 0 22 -4 25 -10 3 -6 -5 -10 -19 -10 -27 0
-46 24 -46 58 0 16 5 19 23 14 21 -5 21 -5 -5 30 -25 33 -27 48 -6 48 4 0 8
-7 8 -15 0 -9 8 -25 19 -36 l19 -20 46 22 c37 17 45 25 41 40 -4 11 -2 19 4
19 6 0 11 -11 11 -24z m149 -212 c12 -11 -18 -15 -165 -20 -168 -5 -314 2
-314 17 0 14 465 18 479 3z"/>
<path d="M314 1725 c-26 -39 -12 -55 46 -55 44 0 50 3 50 21 0 60 -64 83 -96
34z"/>
<path d="M431 1506 c-7 -8 -13 -27 -14 -43 -2 -27 0 -28 49 -31 44 -3 52 0 57
17 2 10 -1 30 -7 43 -14 28 -66 37 -85 14z"/>
<path d="M323 1502 c-6 -4 -13 -21 -15 -37 -3 -29 -2 -30 45 -33 46 -3 47 -2
47 25 0 16 -5 34 -12 41 -13 13 -47 16 -65 4z"/>
<path d="M900 1355 c0 -13 21 -25 46 -25 7 0 11 6 8 14 -7 18 -54 28 -54 11z"/>
<path d="M910 1175 c0 -16 46 -32 58 -20 8 8 -26 35 -45 35 -7 0 -13 -7 -13
-15z"/>
<path d="M400 873 c-71 -27 -69 -24 -25 -43 54 -25 55 -25 55 15 0 35 -3 38
-30 28z"/>
<path d="M934 885 c24 -18 39 -20 34 -2 -3 6 -15 13 -29 15 -23 2 -23 2 -5
-13z"/>
<path d="M920 660 c0 -9 40 -30 56 -30 12 0 2 29 -12 34 -24 9 -44 7 -44 -4z"/>
</g>
</svg>
